<?xml version="1.0" encoding="UTF-8" standalone="no"?>
<!-- Uploaded to: SVG Repo, www.svgrepo.com, Generator: SVG Repo Mixer Tools -->

<svg
   fill="#000000"
   version="1.1"
   id="Capa_1"
   width="800px"
   height="800px"
   viewBox="0 0 33.609 33.609"
   xml:space="preserve"
   sodipodi:docname="logo.svg"
   inkscape:version="1.4.3 (0d15f75, 2025-12-25)"
   inkscape:export-filename="logo.png"
   inkscape:export-xdpi="61.439999"
   inkscape:export-ydpi="61.439999"
   xmlns:inkscape="http://www.inkscape.org/namespaces/inkscape"
   xmlns:sodipodi="http://sodipodi.sourceforge.net/DTD/sodipodi-0.dtd"
   xmlns="http://www.w3.org/2000/svg"
   xmlns:svg="http://www.w3.org/2000/svg"><defs
   id="defs1" /><sodipodi:namedview
   id="namedview1"
   pagecolor="#ffffff"
   bordercolor="#000000"
   borderopacity="0.25"
   inkscape:showpageshadow="2"
   inkscape:pageopacity="0.0"
   inkscape:pagecheckerboard="0"
   inkscape:deskcolor="#d1d1d1"
   inkscape:zoom="0.9075"
   inkscape:cx="436.36364"
   inkscape:cy="346.00551"
   inkscape:window-width="1560"
   inkscape:window-height="970"
   inkscape:window-x="-6"
   inkscape:window-y="-6"
   inkscape:window-maximized="1"
   inkscape:current-layer="Capa_1" />
<g
   inkscape:groupmode="layer"
   id="layer1"
   inkscape:label="Layer 1"
   style="display:inline"><rect
     style="fill:#c02424;fill-opacity:1;stroke:#a51919;stroke-width:0.630169;stroke-linecap:round;stroke-linejoin:round;stroke-dasharray:none;stroke-opacity:1"
     id="rect2"
     width="23.180458"
     height="23.180458"
     x="-35.355381"
     y="-11.590229"
     transform="rotate(-135)" /></g>
<path
   id="path1"
   style="display:none;fill:#5c0e0e;fill-opacity:1;stroke:none;stroke-width:0.081031;stroke-dasharray:none;stroke-opacity:1"
   d="m 21.707381,1.7823665 c -0.38586,0.1590445 0.206424,0.5779928 0.344009,0.7627171 0.956973,0.7525013 1.628627,1.7641258 2.234678,2.800499 0.659092,1.2465955 1.022202,2.6427012 1.487899,3.9741808 0.151983,0.5597368 0.28701,1.1430806 0.346557,1.7115286 -2.140236,0.254772 -4.203258,0.934299 -6.148913,1.845854 1.036687,-1.117007 2.527605,-1.769031 3.662221,-2.681304 C 23.315522,8.6290014 22.628968,7.1523658 22.265659,5.5979169 21.979495,4.4345015 20.973261,3.607711 19.822252,3.3839845 c -0.673673,-0.1765403 -0.358053,0.176828 0.04065,0.4567182 1.095009,1.132049 0.952129,2.8315131 1.317001,4.2588731 0.02987,0.6184709 0.413891,1.4212141 -0.26857,1.8339456 -0.811387,0.6450436 -1.580434,1.3716626 -2.229267,2.1632156 -0.190892,-0.829806 0.116204,-2.024909 -0.782375,-2.5161798 -0.550855,-0.043841 -0.257432,0.8070088 -0.481613,1.1106578 -0.11572,0.389358 -0.600717,0.690405 -0.868867,0.265378 -0.480193,-0.344169 -0.08682,-1.0895278 -0.550414,-1.3937276 -0.813021,0.176242 -0.777665,1.2446986 -0.937009,1.8848956 -0.02312,0.659139 -0.222258,0.76192 -0.56287,0.165397 C 13.876671,10.812866 12.95107,10.307511 12.332648,9.5235501 12.196149,8.5017742 12.606797,7.456926 12.72164,6.4324737 12.79889,5.3335992 13.119902,4.0949552 14.238945,3.5887396 15.006018,3.3228007 14.302615,3.2239193 13.879705,3.286177 12.368578,3.5685876 11.355246,4.9758691 11.098148,6.4255041 10.792044,7.6489501 10.290935,8.8089649 9.9877436,10.02609 c -0.043102,0.434207 0.6394624,0.529559 0.8935264,0.821201 0.954898,0.614609 1.953188,1.192155 2.742885,2.025923 C 11.678792,11.955225 9.6017676,11.302646 7.4732751,11.021463 7.7678187,9.1744781 8.4231532,7.3746172 9.1775936,5.6706503 9.8045787,4.4307607 10.582895,3.2528765 11.675469,2.3730323 11.816404,2.2217572 12.347624,1.7672059 11.941459,1.7980927 10.791496,2.3090058 9.7467801,3.0637448 9.0587431,4.1342145 8.0512139,5.5613884 7.0026379,7.0111543 6.5336395,8.7195522 6.0254303,10.108566 5.8230185,11.603446 5.5253408,13.04977 c -0.027549,0.558167 -0.073582,1.172116 0.2298556,1.669297 0.188002,-0.539619 0.4057596,-1.075581 1.0033567,-1.271144 1.2478771,-0.584629 2.6697763,-0.07325 3.9601879,0.06006 0.977137,0.14176 1.882422,0.522352 2.756016,0.9575 -1.334084,0.170025 -2.675393,0.283083 -4.0081958,0.452125 -1.3797912,0.568824 -2.8052815,1.304369 -4.3187863,1.27185 -0.4297526,-0.07283 -0.2782461,-0.969179 -0.6821205,-0.839381 -0.6334267,1.323348 -0.071576,2.835196 0.1140143,4.202806 0.7253254,2.821533 1.406305,5.699512 2.7225848,8.313221 0.4540286,1.289764 1.6443341,2.104715 2.5744504,3.039888 0.5377301,0.465253 1.3461411,0.988774 2.0549271,0.59088 C 10.615857,30.229103 9.1157529,28.97729 8.4188709,27.21071 7.8082388,26.077905 7.5133923,24.872261 7.1481167,23.65601 6.5495598,21.991145 6.1009481,20.156523 6.4277581,18.392122 6.9186277,17.52324 8.0627273,17.410785 8.894424,17.004819 c 1.0566026,-0.371186 2.164448,-0.597509 3.229852,-0.911682 -1.277229,0.774508 -2.6395827,1.575234 -3.4813705,2.846428 -0.2473304,0.949527 0.3251001,1.890468 0.5579883,2.793192 0.7494885,1.970981 1.5799692,3.933552 2.6595582,5.742826 0.302371,0.369449 0.458952,0.872296 0.904664,1.092301 0.371258,0.635025 1.205903,0.57636 1.843887,0.577934 0.500539,0.04595 0.131431,-0.64758 -0.192645,-0.67229 -0.743678,-0.306795 -1.181596,-1.071387 -1.663776,-1.678312 -0.649394,-1.258358 -1.17027,-2.585547 -1.646044,-3.917801 -0.207641,-0.902042 -0.544068,-1.830333 -0.564703,-2.762322 0.320994,-0.718337 0.895867,-1.309711 1.411418,-1.89534 0.738126,-0.643458 1.630388,-1.186809 2.433619,-1.672524 -0.241296,0.528384 -0.357964,1.108919 -0.503236,1.668935 -0.09297,1.159001 0.795528,2.067046 1.356378,2.987963 0.364439,0.277097 0.711622,0.662598 1.177493,0.741093 0.0763,-0.594662 0.05104,-1.196981 0.03735,-1.794743 0.794074,-0.250567 0.738927,0.319925 0.678189,0.933739 0.05488,0.2973 -0.142065,1.039398 0.35471,0.795553 1.018338,-0.246279 1.455172,-1.327977 1.951133,-2.138172 0.472946,-1.053699 0.262559,-2.265316 -0.174953,-3.292656 0.619938,0.711249 1.599662,0.981557 2.260631,1.665004 0.588625,0.563603 1.111544,1.230066 1.519535,1.934312 0.06377,0.785992 -0.281576,1.568356 -0.419784,2.342229 -0.237931,1.130554 -0.701033,2.201546 -1.064368,3.303449 -0.512477,1.035227 -0.907617,2.282636 -2.064053,2.771729 -0.320049,0.04297 -0.795228,0.406133 -0.609388,0.727333 0.730101,0.191991 1.752657,0.02939 2.398233,-0.477681 0.641709,-1.161333 1.595693,-2.175059 1.812953,-3.530358 0.25334,-0.870529 0.750822,-1.64923 0.950342,-2.536896 0.39511,-1.150483 0.988383,-2.306774 0.959865,-3.547303 -0.35122,-0.868729 -1.225413,-1.402902 -1.918992,-1.985949 -0.539005,-0.344754 -1.069882,-0.706749 -1.623317,-1.025604 1.850766,0.541372 3.834002,0.873778 5.468759,1.950039 0.579977,0.705575 0.274883,1.730053 0.314523,2.571222 -0.262433,2.699055 -1.323997,5.251687 -2.518146,7.664518 -0.640341,1.170266 -1.680506,2.065629 -2.635315,2.974507 -0.304035,0.22256 -0.57433,0.505557 -0.04206,0.56387 1.361215,-0.03408 2.215854,-1.308286 3.131595,-2.146154 1.077161,-0.937897 1.367938,-2.392594 2.005368,-3.614667 0.883106,-2.284336 1.564321,-4.662367 1.938425,-7.087719 0.170553,-1.190896 0.54765,-2.460328 -0.0025,-3.618675 -0.173293,-0.32176 -0.320491,0.566409 -0.564319,0.754248 -0.546744,0.289348 -1.275895,-0.07103 -1.854771,-0.189046 -1.284747,-0.281812 -2.389779,-1.189872 -3.74919,-1.127331 -0.930954,-0.06966 -1.961942,-0.222333 -2.811335,-0.332294 1.683727,-0.912955 3.627822,-1.163562 5.520655,-1.262021 0.861801,-0.0615 1.787787,0.325355 2.069165,1.193219 0.192882,0.520771 0.361144,-0.35647 0.345971,-0.607739 -0.0038,-1.509793 -0.491441,-2.977 -0.802006,-4.4418768 C 26.781765,7.3213811 25.6179,5.5712796 24.400406,3.9265373 23.637941,3.0740923 22.723218,2.2994942 21.707381,1.7823665 Z" /><path
   d="m 19.759401,3.3683668 c -0.590169,-0.1379471 -0.282224,0.2015412 0.103469,0.4722984 1.095009,1.132049 0.952164,2.8315305 1.317036,4.2588905 0.02987,0.6184709 0.413901,1.42124 -0.26856,1.8339715 -0.811387,0.6450438 -1.580471,1.3716158 -2.229304,2.1631688 -0.190892,-0.829806 0.116201,-2.024891 -0.782378,-2.5161617 -0.550855,-0.043841 -0.257389,0.8070237 -0.48157,1.1106727 -0.11572,0.389358 -0.600712,0.690387 -0.868862,0.26536 -0.480193,-0.344169 -0.08682,-1.0894744 -0.550413,-1.3936742 -0.813021,0.176242 -0.777703,1.2446472 -0.937047,1.8848442 -0.02312,0.659139 -0.222274,0.761943 -0.562886,0.16542 -0.622247,-0.800292 -1.547783,-1.305607 -2.166205,-2.0895677 -0.136499,-1.0217759 0.27409,-2.0666567 0.388933,-3.091109 0.07725,-1.0988745 0.398285,-2.3375029 1.517328,-2.8437185 0.732009,-0.2537825 0.1249,-0.3554209 -0.299658,-0.3100791 l -2.752148,2.7520651 c -0.03583,0.130674 -0.06558,0.2625585 -0.08903,0.394758 -0.306104,1.223446 -0.807153,2.3834524 -1.1103446,3.6005772 -0.043102,0.434207 0.6394136,0.529547 0.8934776,0.821189 0.954898,0.614609 1.953178,1.192208 2.742875,2.025976 C 11.678754,11.955259 9.6017359,11.302654 7.4732434,11.021471 7.5604229,10.474797 7.6792638,9.9322465 7.8228722,9.395094 L 5.849246,11.36872 c -0.1090865,0.561688 -0.2094895,1.124915 -0.3239461,1.681025 -0.027549,0.558167 -0.073525,1.172109 0.2299131,1.66929 0.188002,-0.539619 0.4057497,-1.075523 1.0033468,-1.271086 1.2478771,-0.584629 2.6698052,-0.07325 3.9602172,0.06006 0.977137,0.14176 1.882409,0.522331 2.756003,0.957479 -1.334084,0.170025 -2.675415,0.283071 -4.0082176,0.452113 -1.3797912,0.568824 -2.8052846,1.304344 -4.3187894,1.271825 -0.4297526,-0.07283 -0.278234,-0.96912 -0.6821084,-0.839322 -0.6334267,1.323348 -0.071618,2.835156 0.1139719,4.202766 0.1630816,0.634391 0.323945,1.271612 0.490268,1.908065 l 2.0139964,2.013997 C 6.5181967,21.858694 6.1127176,20.092808 6.4277213,18.392148 c 0.4908696,-0.868882 1.6349872,-0.98139 2.4666839,-1.387356 1.0566026,-0.371186 2.1644568,-0.59752 3.2298608,-0.911693 -1.277229,0.774508 -2.6395661,1.575232 -3.4813539,2.846426 -0.2473304,0.949527 0.3250737,1.890532 0.5579619,2.793256 0.7494885,1.970981 1.580002,3.933549 2.659591,5.742823 0.302371,0.369449 0.458925,0.872287 0.904637,1.092292 0.371258,0.635025 1.205916,0.576327 1.8439,0.577901 0.500539,0.04595 0.131415,-0.647552 -0.192661,-0.672262 -0.743678,-0.306795 -1.181613,-1.071392 -1.663793,-1.678317 -0.649394,-1.258358 -1.170214,-2.585541 -1.645988,-3.917795 -0.207641,-0.902042 -0.544055,-1.830333 -0.56469,-2.762322 0.320994,-0.718337 0.895846,-1.309718 1.411397,-1.895347 0.738126,-0.643458 1.630386,-1.186776 2.433617,-1.672491 -0.241296,0.528384 -0.357961,1.108865 -0.503233,1.668881 -0.09297,1.159001 0.79549,2.067051 1.35634,2.987968 0.364439,0.277097 0.711675,0.662609 1.177546,0.741104 0.0763,-0.594662 0.05102,-1.196988 0.03733,-1.79475 0.794074,-0.250567 0.738908,0.319952 0.67817,0.933766 0.05488,0.2973 -0.142059,1.039351 0.354716,0.795506 1.018338,-0.246279 1.455183,-1.327948 1.951144,-2.138143 0.472946,-1.053699 0.262574,-2.265292 -0.174938,-3.292632 0.619938,0.711249 1.599598,0.981495 2.260567,1.664942 0.588625,0.563603 1.111552,1.230077 1.519543,1.934323 0.06377,0.785992 -0.281576,1.568418 -0.419784,2.342291 -0.237931,1.130554 -0.700977,2.201478 -1.064312,3.303381 -0.512477,1.035227 -0.907613,2.282665 -2.064049,2.771758 -0.320049,0.04297 -0.79525,0.40612 -0.60941,0.72732 0.730101,0.191991 1.752676,0.02944 2.398252,-0.477632 0.641709,-1.161333 1.595706,-2.175123 1.812966,-3.530422 0.25334,-0.870529 0.75082,-1.649174 0.95034,-2.53684 0.39511,-1.150483 0.988377,-2.306796 0.959859,-3.547325 -0.35122,-0.868729 -1.225482,-1.402887 -1.919061,-1.985934 -0.539005,-0.344754 -1.069824,-0.706728 -1.623259,-1.025583 1.850766,0.541372 3.834009,0.873734 5.468766,1.949995 0.579977,0.705575 0.27487,1.730051 0.31451,2.57122 -0.08722,0.896982 -0.262733,1.777805 -0.502002,2.642688 l 1.91824,-1.918158 c 0.185126,-0.783862 0.340869,-1.574504 0.463601,-2.37019 0.170553,-1.190896 0.547688,-2.460282 -0.0025,-3.618629 -0.173293,-0.32176 -0.320534,0.566394 -0.564362,0.754233 -0.546744,0.289348 -1.275855,-0.07103 -1.854731,-0.18905 -1.284747,-0.281812 -2.389765,-1.189871 -3.749176,-1.12733 -0.930954,-0.06966 -1.961996,-0.222354 -2.811389,-0.332315 1.683727,-0.912955 3.627872,-1.16352 5.520705,-1.261979 0.861801,-0.0615 1.787758,0.325354 2.069136,1.193218 0.192882,0.520771 0.361109,-0.356499 0.345936,-0.607768 -0.002,-0.812743 -0.144254,-1.6131 -0.323618,-2.407441 L 25.797205,9.4061712 c 0.142379,0.5331952 0.266801,1.0858908 0.32329,1.6251458 -2.140236,0.254772 -4.20325,0.934315 -6.148905,1.84587 1.036687,-1.117007 2.527666,-1.769063 3.662282,-2.681336 C 23.340851,8.7534935 22.735735,7.3874554 22.358026,5.9669104 Z"
   style="fill:#a51919;stroke-width:0.081031;fill-opacity:1"
   id="path10" /></svg>
