<?xml version="1.0" encoding="UTF-8" standalone="no"?>
<!-- Uploaded to: SVG Repo, www.svgrepo.com, Generator: SVG Repo Mixer Tools -->

<svg
   width="800px"
   height="800px"
   viewBox="0 0 18 18"
   version="1.1"
   id="svg1"
   sodipodi:docname="spider-slash.svg"
   inkscape:version="1.4.3 (0d15f75, 2025-12-25)"
   xmlns:inkscape="http://www.inkscape.org/namespaces/inkscape"
   xmlns:sodipodi="http://sodipodi.sourceforge.net/DTD/sodipodi-0.dtd"
   xmlns="http://www.w3.org/2000/svg"
   xmlns:svg="http://www.w3.org/2000/svg">
  <defs
     id="defs1">
    <rect
       x="1009.8186"
       y="-3.1167241"
       width="1184.3552"
       height="903.84999"
       id="rect4" />
    <rect
       x="0"
       y="116.87715"
       width="769.83085"
       height="683.12285"
       id="rect1" />
  </defs>
  <sodipodi:namedview
     id="namedview1"
     pagecolor="#ffffff"
     bordercolor="#000000"
     borderopacity="0.25"
     inkscape:showpageshadow="2"
     inkscape:pageopacity="0.0"
     inkscape:pagecheckerboard="0"
     inkscape:deskcolor="#d1d1d1"
     inkscape:zoom="0.3208497"
     inkscape:cx="1477.3272"
     inkscape:cy="308.55569"
     inkscape:window-width="1560"
     inkscape:window-height="970"
     inkscape:window-x="-6"
     inkscape:window-y="-6"
     inkscape:window-maximized="1"
     inkscape:current-layer="layer1" />
  <g
     inkscape:groupmode="layer"
     id="layer1"
     inkscape:label="Layer 1">
    <g
       id="text4"
       style="opacity:1;stroke:#000000;stroke-width:1.03599;stroke-dasharray:none;stroke-opacity:1"
       transform="matrix(1.0555805,0,0,1.0555805,-25.600086,-0.27252462)">
      <g
         id="path6"
         style="opacity:1;stroke-width:1.03599;stroke-dasharray:none"
         transform="translate(2.875178,-0.14025258)">
        <path
           style="font-size:80px;line-height:76px;font-family:'jf-openhuninn-2.1';-inkscape-font-specification:'jf-openhuninn-2.1';letter-spacing:2.5px;word-spacing:-0.03px;baseline-shift:baseline;white-space:pre;display:inline;overflow:visible;stroke:none;stroke-width:1.03599;stroke-dasharray:none;enable-background:accumulate;stop-color:#000000;stop-opacity:1"
           d="m 28.684313,0.91601563 c -0.286299,-10e-9 -0.589107,0.0859392 -0.828125,0.25976557 l -0.01172,0.00977 -0.01172,0.00977 c -0.213203,0.1705524 -0.371167,0.4126766 -0.451172,0.6679687 l -4.505859,13.1757821 -0.002,0.002 c -0.04781,0.143414 -0.08398,0.285924 -0.08398,0.46289 0,0.349371 0.144865,0.721038 0.396485,0.972656 0.251623,0.251625 0.621329,0.394532 0.970703,0.394532 0.282282,0 0.585773,-0.09056 0.822265,-0.275391 0.22149,-0.166483 0.397914,-0.409683 0.480469,-0.673828 l 4.505859,-13.1738284 0.002,-0.00195 c 0.04781,-0.1434148 0.08398,-0.2859245 0.08398,-0.4628907 0,-0.3493712 -0.142912,-0.7210375 -0.394531,-0.9726562 -0.25162,-0.2516823 -0.623281,-0.39459007 -0.972654,-0.39459007 z m 7.182462,0 c -0.286303,-10e-9 -0.587146,0.0859132 -0.826171,0.25976557 l -0.01172,0.00977 -0.01172,0.00977 C 34.8021,1.3673549 34.641393,1.6114031 34.562088,1.8691406 L 30.058182,15.039063 v 0.002 c -0.04781,0.143414 -0.08398,0.285924 -0.08398,0.46289 0,0.349371 0.142912,0.721038 0.394532,0.972656 0.251622,0.251624 0.623283,0.394532 0.972656,0.394532 0.282278,0 0.585782,-0.09059 0.822265,-0.275391 0.22294,-0.167579 0.40054,-0.411621 0.482422,-0.677734 L 37.149979,2.7480469 v -0.00195 c 0.04781,-0.1434148 0.08594,-0.2859245 0.08594,-0.4628907 0,-0.3493712 -0.144865,-0.7210375 -0.396484,-0.9726562 C 36.587809,1.058923 36.216149,0.91601563 35.866775,0.91601563 Z M 28.684313,2.2226563 c 0.059,0 0.02626,-0.00889 0.04687,0.011719 0.02062,0.020618 0.01367,-0.010156 0.01367,0.048828 0,-0.040848 0.0027,-0.011935 -0.01758,0.048828 l -4.509765,13.1914067 -0.0039,0.0098 c -0.0069,0.02256 0.0035,0.0076 -0.01563,0.02149 l -0.01172,0.0078 -0.01172,0.0098 c 0.01102,-0.0088 0.03642,-0.0078 -0.01758,-0.0078 -0.059,0 -0.02626,0.0089 -0.04687,-0.01172 -0.02062,-0.02062 -0.01367,0.01016 -0.01367,-0.04883 0,0.03599 0.0023,0.0034 0.01563,-0.04297 l 0.002,-0.0059 4.509766,-13.1914061 0.0039,-0.00977 c 0.007,-0.022625 0.01034,-0.019981 0.01367,-0.023437 0.0051,-0.00405 0.0033,-0.00781 0.04297,-0.00781 z m 7.182462,0 c 0.059,0 0.02822,-0.00889 0.04883,0.011719 0.02062,0.020618 0.01367,-0.010156 0.01367,0.048828 0,-0.040848 0.0027,-0.011935 -0.01758,0.048828 l -4.511718,13.1914067 -0.002,0.0098 c -0.0069,0.02256 0.0035,0.0076 -0.01563,0.02149 l -0.01172,0.0078 -0.01172,0.0098 c 0.01098,-0.0088 0.0364,-0.0078 -0.01758,-0.0078 -0.059,0 -0.02821,0.0089 -0.04883,-0.01172 -0.02062,-0.02062 -0.01172,0.01016 -0.01172,-0.04883 0,0.03599 0.0023,0.0034 0.01563,-0.04297 l 0.002,-0.0059 4.509766,-13.1914061 0.0039,-0.00977 c 0.007,-0.022625 0.01034,-0.019981 0.01367,-0.023437 0.0051,-0.00394 0.0018,-0.00781 0.04102,-0.00781 z"
           id="path9"
           sodipodi:nodetypes="sccccccsssccccscssccccccsssccccssscscccccccsccccccccccscccccccsscccccccc" />
        <path
           style="font-size:80px;line-height:76px;font-family:'jf-openhuninn-2.1';-inkscape-font-specification:'jf-openhuninn-2.1';letter-spacing:2.5px;word-spacing:-0.03px;baseline-shift:baseline;white-space:pre;display:inline;overflow:visible;stroke:none;stroke-width:1.03599;stroke-dasharray:none;enable-background:accumulate;stop-color:#000000;stop-opacity:1"
           d="m 28.684313,0.3984375 c -0.389957,-10e-9 -0.791171,0.11091601 -1.132812,0.359375 l -0.01367,0.009766 -0.02539,0.0195313 -0.0039,0.003906 c -0.302494,0.2419738 -0.510862,0.5661969 -0.621103,0.9179686 l -4.46289,13.0488286 -0.0039,0.0039 -0.03906,0.115234 c -0.05558,0.166725 -0.109375,0.379405 -0.109375,0.626953 0,0.492561 0.185203,0.978175 0.546875,1.339844 0.361671,0.361673 0.847264,0.544922 1.337891,0.544922 0.391656,0 0.796251,-0.118146 1.136718,-0.382813 0.307392,-0.232424 0.542488,-0.55319 0.660157,-0.929687 l 4.460937,-13.0429689 0.0039,-0.00391 0.04102,-0.1191406 c 0.05558,-0.1667246 0.109375,-0.3794052 0.109375,-0.6269532 0,-0.4900164 -0.183205,-0.97542 -0.544922,-1.3378906 -0.36262,-0.36271024 -0.849216,-0.546875 -1.339844,-0.546875 z m 7.182462,0 c -0.389928,-10e-9 -0.790279,0.11165771 -1.130859,0.359375 l -0.01367,0.009766 -0.02539,0.0195313 -0.0039,0.003906 c -0.303375,0.2426759 -0.514877,0.5678887 -0.625,0.9257813 l 0.0039,-0.015625 -4.50586,13.1757809 v 0.0039 l -0.02539,0.07227 v 0.07031 c -0.04011,0.143702 -0.08398,0.290748 -0.08398,0.480468 0,0.49063 0.182302,0.977227 0.544922,1.339844 0.362618,0.362621 0.849217,0.544922 1.339844,0.544922 0.39169,0 0.796276,-0.118199 1.136719,-0.382813 0.30825,-0.233068 0.545046,-0.555096 0.662109,-0.935547 l -0.0039,0.01563 4.505859,-13.1757805 V 2.90625 l 0.02539,-0.072266 V 2.767578 c 0.04083,-0.1427968 0.08594,-0.2901731 0.08594,-0.484375 0,-0.4925605 -0.185205,-0.9781745 -0.546875,-1.33984372 C 36.843999,0.58073778 36.357403,0.3984375 35.866775,0.3984375 Z m -7.182462,1.0351562 c 0.208119,10e-8 0.46485,0.1034863 0.605469,0.2441407 0.107966,0.1079653 0.153699,0.2942929 0.1875,0.4648437 L 29.127673,1.9003906 v -0.00195 c -8e-6,-9.3e-6 -0.0164,-0.013239 -0.02148,-0.017578 0.0011,0.00118 0.0028,0.00461 0.0039,0.00586 l -0.0059,-0.00391 c -0.0016,-0.00233 -0.0047,-0.00805 -0.0059,-0.00977 -0.0103,-0.00878 -0.0173,-0.013777 -0.0332,-0.027344 0.0068,0.00569 0.02007,0.010592 0.02539,0.015625 -6.59e-4,-9.421e-4 -0.0078,-0.00976 -0.0078,-0.00977 -5.3e-5,-4.56e-5 -0.02324,-0.015782 -0.03906,-0.025391 -0.03353,-0.028589 -0.06832,-0.056621 -0.06836,-0.056641 -7.7e-5,-4.33e-5 -0.152233,-0.056619 -0.152344,-0.056641 -1.1e-4,-2.21e-5 -0.08969,-0.00976 -0.08984,-0.00977 -1.53e-4,-3.1e-6 -0.03672,-6.731e-4 -0.04687,0 -0.01015,6.731e-4 -0.0093,0.00149 -0.01367,0.00195 h -0.0059 -0.580078 c 0.02837,-0.031702 0.03913,-0.080527 0.07031,-0.1054687 l 0.0039,-0.00391 0.0039,-0.00391 c 0.136379,-0.097823 0.338328,-0.1582032 0.519531,-0.1582032 z m 7.182462,0 c 0.208121,0 0.464837,0.1035083 0.605469,0.2441407 0.141569,0.1415682 0.246094,0.3992869 0.246094,0.6054687 0,0.1025597 -0.01916,0.1746936 -0.06055,0.2988282 l -0.02539,0.080078 -4.478515,13.0957037 -0.002,0.0078 c -0.04614,0.149968 -0.163347,0.314177 -0.298828,0.416016 l -0.0039,0.0039 -0.0039,0.002 c -0.131767,0.10297 -0.332453,0.166016 -0.503906,0.166016 -0.208119,0 -0.464843,-0.103514 -0.605469,-0.244141 -0.14062,-0.140619 -0.244141,-0.397357 -0.244141,-0.605469 0,-0.106384 0.01855,-0.178724 0.05859,-0.298828 l 0.02539,-0.08008 4.478515,-13.0957032 0.002,-0.00781 c 0.04849,-0.1575824 0.158404,-0.3204835 0.285156,-0.421875 l 0.0039,-0.00391 0.0039,-0.00391 c 0.13738,-0.098581 0.336344,-0.1582032 0.517578,-0.1582032 z m 0.0078,0.2695313 c -0.01486,8.581e-4 -0.0194,0.00148 -0.02344,0.00195 H 35.52301 l -0.07031,0.1660156 -0.0039,0.00977 c -0.01131,0.01114 -0.01973,0.0137 -0.0293,0.025391 -0.0778,0.095099 -0.0895,0.1563336 -0.101563,0.1953125 l 0.01367,-0.039063 -0.0098,0.021484 -4.513672,13.2050789 -0.0059,0.01758 -0.0039,0.01172 c -0.01338,0.04655 -0.0235,0.09289 -0.01953,0.07617 9.91e-4,-0.0042 0.0199,-0.06151 0.01953,-0.06055 -9.2e-5,2.42e-4 0.03133,-0.06655 0.03125,-0.06641 -4.1e-5,7.3e-5 0.04496,-0.06841 0.04492,-0.06836 -3.8e-5,4.8e-5 0.12113,-0.111352 0.121094,-0.111328 0,0 0.0038,0.0057 0.0039,0.0059 l -0.09961,0.292969 c -0.001,0.0034 -9.52e-4,0.0081 -0.002,0.01172 -3.1e-5,1.04e-4 0.03535,-0.06926 0.0625,-0.121094 -6.12e-4,-4.24e-4 -0.01172,-0.0078 -0.01172,-0.0078 l 0.01563,-0.02148 c 0,0 0.0075,0.0056 0.0078,0.0059 0.0049,-0.0094 0.01759,-0.03127 0.01758,-0.03125 -2.6e-5,3.3e-5 0.02583,-0.02045 0.04492,-0.03711 l 0.13086,0.158203 c 0.03807,0.05733 0.06017,0.0921 0.07813,0.119141 0.02248,0.01734 0.03463,0.02856 0.05078,0.04101 h -0.0078 c -0.0098,-0.0068 -0.01736,-0.01322 -0.0293,-0.02148 0.0022,0.0033 0.0127,0.02003 0.01367,0.02148 h -0.507812 c 0,0.0017 -8.72e-4,-0.0059 0,-0.01563 -4.75e-4,0.004 -0.0011,0.0086 -0.002,0.02344 -2.09e-4,0.0036 0.0017,0.01358 0.002,0.02148 2.66e-4,0.0074 2.86e-4,0.01582 0.002,0.0332 0.0015,0.02592 0.0019,0.0565 0.002,0.05664 7e-6,4.5e-5 0.01289,0.02843 0.01758,0.03906 0.0018,0.0073 0.0039,0.01949 0.0039,0.01953 2.7e-5,8e-5 0.03708,0.08198 0.03711,0.08203 2e-6,4e-6 0.0068,0.0085 0.0078,0.0098 0.007,0.01594 0.01009,0.02069 0.01563,0.0332 -0.0049,-0.0085 -0.01152,-0.01309 -0.01563,-0.02149 0.0014,0.0033 0.0039,0.0097 0.0039,0.0098 2.5e-5,5.1e-5 0.01023,0.01581 0.01953,0.03125 0.0051,0.01143 0.01756,0.04099 0.01758,0.04102 2.4e-5,2.9e-5 0.02075,0.01765 0.03711,0.0332 0.0023,0.0021 0.0015,0.0036 0.0039,0.0059 0.0053,0.005 0.0063,0.0046 0.01172,0.0098 0.0062,0.0066 0.0058,0.0074 0.01172,0.01367 8.43e-4,7.69e-4 0.003,0.0012 0.0039,0.002 0.01601,0.01685 0.03317,0.03708 0.0332,0.03711 2.5e-5,2e-5 0.02778,0.01149 0.03711,0.01563 0.0188,0.01135 0.03705,0.02341 0.03711,0.02344 9.6e-5,4.8e-5 0.0091,0.0041 0.01758,0.0078 -0.0102,-0.0046 -0.01692,-0.01169 -0.02734,-0.01758 0.07008,0.03102 0.181432,0.08005 0.18164,0.08008 2.82e-4,4.4e-5 0.09278,0.0069 0.111328,0.0059 0.01485,-8.63e-4 0.01941,-0.0015 0.02344,-0.002 -0.0021,2.96e-4 -0.0017,0.0014 -0.03516,-0.002 -0.01022,-0.001 -0.04703,-0.0078 -0.04687,-0.0078 1.54e-4,3e-5 -0.125077,-0.04105 -0.125,-0.04102 0,0 0.193575,-0.405362 0.21289,-0.445312 3.3e-5,-6.9e-5 0.0019,6.6e-5 0.002,0 l 0.316407,0.388671 c 0.0021,-0.0019 0.0051,-0.0054 0.0078,-0.0078 l 0.002,0.002 -0.0039,0.0059 c 0.01022,-0.0069 0.02733,-0.01756 0.02734,-0.01758 0,0 -0.0056,-0.0075 -0.0059,-0.0078 0.04093,-0.0357 0.08979,-0.07806 0.08984,-0.07813 8.2e-5,-1.02e-4 0.0937,-0.175629 0.09375,-0.175781 6e-6,-1.9e-5 0.0015,-0.008 0.002,-0.0098 0.0016,-0.0053 0.0038,-0.01716 0.0059,-0.02539 l 4.501953,-13.1621094 0.002,-0.00195 c 0.01405,-0.042084 0.01802,-0.065149 0.02344,-0.089844 -0.006,0.016982 -0.02542,0.070383 -0.02539,0.070312 l -0.0098,0.019531 -0.0078,0.015625 -0.05078,0.076172 c 0,0 -0.03468,-0.028526 -0.04297,-0.035156 l 0.05469,-0.1289063 -0.05664,0.037109 0.0059,-0.017578 0.0059,-0.015625 0.0059,-0.021484 c -0.0022,0.00713 -0.02878,0.047964 -0.03711,0.068359 l -0.04297,0.027344 C 36.119574,2.4166947 35.982991,2.3074248 35.952713,2.2832031 h 0.494141 c 8e-6,-1.49e-4 0.0013,6.2e-5 0.002,-0.019531 3.04e-4,-0.0098 -0.0019,-0.054221 -0.002,-0.054687 -1.3e-5,-1.764e-4 -0.0061,-0.028876 -0.01172,-0.054687 -9.94e-4,-0.0046 -9.09e-4,-0.00494 -0.002,-0.00977 l -0.0059,-0.023437 c -0.0059,-0.027012 -0.01168,-0.05653 -0.01172,-0.056641 -2e-5,-5.18e-5 -0.01917,-0.027324 -0.02734,-0.039063 -0.0015,-0.00213 -0.0022,-0.0054 -0.0039,-0.00781 -0.0011,-0.00152 -0.0028,-0.00229 -0.0039,-0.00391 -3.31e-4,-4.766e-4 3.38e-4,-0.00147 0,-0.00195 -0.03723,-0.053469 -0.08744,-0.1243246 -0.101562,-0.1445313 -0.0038,-0.00403 -0.0041,-0.0039 -0.0078,-0.00781 -3.23e-4,-4.606e-4 -0.0039,-0.00781 -0.0039,-0.00781 -1.3e-5,-1.12e-5 -0.0085,-0.00511 -0.0098,-0.00586 -0.01028,-0.010821 -0.02537,-0.027325 -0.02539,-0.027344 -4.4e-5,-3.53e-5 -0.03948,-0.018238 -0.06445,-0.029297 -0.0037,-0.00164 -0.0057,-0.00212 -0.0098,-0.00391 -0.07212,-0.031933 -0.171678,-0.076141 -0.171875,-0.076172 -2.82e-4,-4.42e-5 -0.09277,-0.00693 -0.111328,-0.00586 z m -4.976563,13.695313 -0.0078,0.03125 c -0.003,0.0133 -0.006,0.02658 -0.0078,0.03906 -0.0021,0.0141 -0.0029,0.02949 0,0.0078 0.0015,-0.01084 0.01567,-0.07828 0.01563,-0.07813 z M 28.352282,1.8007812 c -0.0025,0.00166 -0.01331,0.012472 -0.01758,0.015625 0.0014,-0.00113 -0.0078,0.00542 -0.0059,0.00391 0.0038,-0.00315 0.0073,-0.00798 0.0098,-0.00977 0.01681,-0.012009 0.02203,-0.015315 0.01367,-0.00977 z m 7.184415,0 c -0.0042,0.00282 -0.02036,0.020422 -0.0293,0.027344 -0.0032,0.00244 -0.0088,0.00348 -0.01172,0.00586 0.01243,-0.010835 0.02082,-0.018776 0.02734,-0.023437 0.01681,-0.012009 0.02203,-0.015315 0.01367,-0.00977 z m 0.759766,0.085937 c 0.02549,0.028824 0.05659,0.071227 0.07813,0.1152344 -0.0014,-0.00331 -0.0039,-0.00971 -0.0039,-0.00977 -6e-5,-1.214e-4 -0.04485,-0.074126 -0.04492,-0.074219 -2.1e-5,-2.91e-5 -0.01651,-0.01778 -0.0293,-0.03125 z m -8.494962,0.3515626 0.228516,0.1601562 -4.40625,12.890626 -0.0059,0.01758 -0.0039,0.01172 c -0.01338,0.04655 -0.0235,0.09289 -0.01953,0.07617 9.91e-4,-0.0042 0.0199,-0.06151 0.01953,-0.06055 -9.2e-5,2.42e-4 0.03133,-0.06655 0.03125,-0.06641 -4.1e-5,7.3e-5 0.04496,-0.06841 0.04492,-0.06836 -3.8e-5,4.8e-5 0.121129,-0.111352 0.121094,-0.111328 0,0 0.0037,0.0076 0.0039,0.0078 l -0.08398,0.248047 -0.0059,0.01758 -0.0078,0.01953 c -0.0015,0.005 -0.0024,0.01201 -0.0039,0.01758 -3e-5,1.03e-4 0.03529,-0.0672 0.0625,-0.119141 -6.16e-4,-4.24e-4 -0.01172,-0.0078 -0.01172,-0.0078 l 0.01563,-0.02148 c 0,0 0.0075,0.0056 0.0078,0.0059 0.0053,-0.0102 0.01759,-0.03322 0.01758,-0.0332 -2.6e-5,3.3e-5 0.02583,-0.02045 0.04492,-0.03711 l 0.132813,0.162108 c 0.03738,0.05629 0.06098,0.09137 0.07813,0.117189 0.02105,0.01616 0.03343,0.02529 0.04883,0.03711 2.98e-4,2.28e-4 -2.96e-4,0.0017 0,0.002 h -0.0078 c -0.0095,-0.0066 -0.01772,-0.01156 -0.0293,-0.01953 0.002,0.003 0.01277,0.01817 0.01367,0.01953 h -0.507812 c -9e-6,1.49e-4 -0.0013,-6.1e-5 -0.002,0.01953 -3.05e-4,0.0098 0.0019,0.05422 0.002,0.05469 3.3e-5,4.66e-4 0.03115,0.144249 0.03125,0.144531 2.8e-5,7.5e-5 0.02375,0.03465 0.03906,0.05664 0.01512,0.02594 0.06441,0.109317 0.06445,0.109375 8e-6,9e-6 0.01639,0.01324 0.02148,0.01758 -0.0087,-0.0092 -0.01882,-0.03333 -0.0293,-0.04687 0.01733,0.02486 0.03014,0.04472 0.03711,0.05469 0.01031,0.0088 0.01728,0.01378 0.0332,0.02734 -0.0068,-0.0057 -0.02007,-0.01059 -0.02539,-0.01563 6.6e-4,9.43e-4 0.0078,0.0098 0.0078,0.0098 5.3e-5,4.5e-5 0.02324,0.01579 0.03906,0.02539 0.03356,0.02859 0.06833,0.05662 0.06836,0.05664 7.7e-5,4.3e-5 0.152233,0.05662 0.152344,0.05664 1.1e-4,2.2e-5 0.08969,0.0098 0.08984,0.0098 1.52e-4,3e-6 0.03674,6.77e-4 0.04687,0 0.0095,-6.32e-4 0.0093,-0.0015 0.01367,-0.002 -0.0028,2.64e-4 -0.0015,0.001 -0.03125,-0.002 -0.0102,-0.001 -0.04703,-0.0078 -0.04687,-0.0078 1.56e-4,3e-5 -0.125077,-0.04105 -0.125,-0.04102 0,0 0.19239,-0.400809 0.212891,-0.443359 l 0.316406,0.386718 c 0.0023,-0.002 0.0066,-0.0051 0.0098,-0.0078 l 0.002,0.002 -0.0039,0.0059 c 0.01068,-0.0072 0.02733,-0.01952 0.02734,-0.01953 l -0.0059,-0.0059 c 0.04093,-0.0357 0.08979,-0.07806 0.08984,-0.07813 7.5e-5,-9.3e-5 0.07246,-0.13438 0.08594,-0.160156 l 0.0039,-0.0098 0.0039,-0.0059 c 4e-6,-1.5e-5 0.0017,-0.0066 0.002,-0.0078 6.6e-5,-2.87e-4 -7.9e-5,-0.0016 0,-0.002 L 29.135485,2.7402344 h 0.285157 l -4.453125,13.0214846 -0.002,0.0059 c -0.04688,0.149995 -0.163456,0.313779 -0.296875,0.414063 l -0.0039,0.0039 -0.0039,0.002 c -0.13176,0.102977 -0.332411,0.166016 -0.503906,0.166016 -0.208121,0 -0.46194,-0.102564 -0.603516,-0.244141 -0.141568,-0.141567 -0.246094,-0.399287 -0.246094,-0.605469 0,-0.105714 0.01909,-0.178118 0.05859,-0.296875 2.5e-4,-7.52e-4 -2.52e-4,-0.0012 0,-0.002 z M 23.71361,15.398438 c -0.0061,0.02227 -0.01228,0.04775 -0.01563,0.07031 -0.0021,0.0141 -0.0029,0.02949 0,0.0078 0.0015,-0.01084 0.01567,-0.07828 0.01563,-0.07813 z M 28.502673,2.2832031 h 0.207031 c -0.03606,0.020034 -0.135013,0.075663 -0.251953,0.140625 z m 0.265625,0 h 0.06055 l -0.01172,0.037109 c -0.01395,-0.01116 -0.04353,-0.032869 -0.04883,-0.037109 z m 6.645352,0 h 0.480469 c -0.0565,0.031388 -0.356672,0.199672 -0.394531,0.2207032 -0.02558,-0.036699 -0.05473,-0.07823 -0.05469,-0.078125 1.04e-4,2.784e-4 -0.0305,-0.1394063 -0.03125,-0.1425782 z m 0.04102,0.1816407 c 0.0091,0.016513 0.02024,0.028801 0.03125,0.044922 -2.63e-4,1.463e-4 -0.0058,0.00385 -0.0059,0.00391 -0.0042,-0.007 -0.0074,-0.013791 -0.01563,-0.027344 -0.0041,-0.00939 -0.0051,-0.010896 -0.0098,-0.021484 z M 35.583572,2.625 c 0.001,8.803e-4 0.0028,0.00107 0.0039,0.00195 -1.46e-4,-6.36e-5 -0.0038,2.6e-5 -0.0039,0 -1.3e-5,-5.7e-6 9e-6,-0.00195 0,-0.00195 z M 31.73201,15.277344 c 0.01103,0.01829 0.02813,0.04952 0.03125,0.05469 2.16e-4,3.58e-4 0.002,0.0039 0.002,0.0039 6.21e-4,0.0014 0.0014,0.0027 0.002,0.0039 -0.01061,-0.02169 -0.02835,-0.03693 -0.04297,-0.05859 4.51e-4,-2.43e-4 0.0076,-0.0038 0.0078,-0.0039 z m -7.188322,0.002 c 0.01679,0.02879 0.03191,0.05332 0.04297,0.07227 1.6e-4,3.69e-4 0.002,0.0039 0.002,0.0039 -7e-6,-2.4e-5 0.0012,0.0089 0.002,0.01172 -0.01547,-0.0359 -0.033,-0.05752 -0.05273,-0.08594 3.48e-4,-1.87e-4 0.0056,-0.0018 0.0059,-0.002 z m -0.01563,0.0078 c 0.02395,0.03435 0.05277,0.07432 0.05273,0.07422 -1.04e-4,-2.78e-4 0.0305,0.139406 0.03125,0.142578 h -0.369141 c 0.02708,-0.03129 0.05218,-0.05983 0.103516,-0.11914 0.08984,-0.04826 0.162624,-0.08742 0.18164,-0.09766 z m 7.184416,0 c 0.03128,0.07082 0.07816,0.175985 0.07813,0.175782 -1.7e-5,-1.06e-4 8.92e-4,0.02404 0.002,0.04101 h -0.365235 c 0.02716,-0.03122 0.05203,-0.05996 0.103516,-0.11914 0.08984,-0.04826 0.162624,-0.08742 0.181641,-0.09766 z m -7.397306,0.113282 c -0.03804,0.04914 -0.05813,0.07768 -0.07813,0.103515 h -0.03516 c 0.0019,-0.0099 0.0067,-0.03117 0.0098,-0.04687 0.03916,-0.02103 0.05173,-0.02883 0.103516,-0.05664 z m 7.188321,0 c -0.03905,0.0502 -0.06158,0.07722 -0.08203,0.103515 h -0.03516 c 0.0019,-0.0099 0.0067,-0.03117 0.0098,-0.04687 0.0403,-0.02165 0.05408,-0.02799 0.107422,-0.05664 z m -7.328946,0.18164 0.002,0.002 c -0.02653,0.03429 -0.302734,0.390625 -0.302734,0.390625 l -0.02344,-0.01758 c 0,0 0.296229,-0.342667 0.324219,-0.375 z m 7.184415,0 c 3.75e-4,2.95e-4 0.0016,-2.98e-4 0.002,0 -0.02499,0.03213 -0.304687,0.392578 -0.304687,0.392578 l -0.02148,-0.01953 c 0,0 0.296072,-0.340703 0.324219,-0.373047 z m 0.318359,0.398438 c -0.0054,0.0042 -0.0047,0.0022 -0.0098,0.0059 -3.21e-4,2.8e-4 -0.0037,0.0018 -0.0039,0.002 -0.0288,0.02048 -0.04181,0.02583 -0.05859,0.0332 0.0048,-0.0022 0.02663,-0.0139 0.04102,-0.02148 -0.0087,0.0051 -0.01359,0.0088 -0.02344,0.01367 -0.01368,0.0068 -0.03056,0.01358 -0.01758,0.0078 -0.01612,0.0071 -0.04888,0.02837 -0.05664,0.03125 0.0041,-0.0014 0.007,-0.0027 0.01953,-0.0078 0.0089,-0.0036 0.04089,-0.01752 0.04102,-0.01758 5.9e-5,-3e-5 0.02534,-0.01802 0.05078,-0.03516 0.0087,-0.0059 0.0097,-0.0064 0.01758,-0.01172 z m -7.190274,0.002 c -0.03583,0.027 -0.04696,0.03048 -0.06641,0.03906 0.0048,-0.0022 0.02663,-0.0139 0.04102,-0.02148 -0.0087,0.0051 -0.01359,0.0088 -0.02344,0.01367 -0.01368,0.0068 -0.03056,0.01358 -0.01758,0.0078 -0.01633,0.0072 -0.04883,0.02836 -0.05664,0.03125 0.0041,-0.0014 0.007,-0.0027 0.01953,-0.0078 0.0089,-0.0036 0.04089,-0.01752 0.04102,-0.01758 5.9e-5,-3e-5 0.02549,-0.01809 0.05078,-0.03516 l 0.0039,-0.0039 c 4.32e-4,-3.75e-4 0.0067,-0.0049 0.0078,-0.0059 z"
           id="path10"
           sodipodi:nodetypes="cccccccccscscccccscccsccccccccccscscccccccscsccccccccccccccscscccccccccsscccccccsssccccccccccccccccccccccssscccsccccccccccccccccccccscccccccccccscsccscccccsccccccccsccccccccccccccccccccccccscccccccccscscccccccccccccccccccccccsccccccccssscccccsccccccccscccccccscsccccccccsssccccccccccccccccccccccccssssccccccccccccccccccsccccccccccsccsccccccccccccscccccscsccccccccccccccccccccccccccccccccccccccsccccccccccscccc" />
        <path
           style="font-size:80px;line-height:76px;font-family:'jf-openhuninn-2.1';-inkscape-font-specification:'jf-openhuninn-2.1';letter-spacing:2.5px;word-spacing:-0.03px;baseline-shift:baseline;white-space:pre;display:inline;overflow:visible;opacity:1;stroke:none;stroke-width:1.03599;stroke-dasharray:none;stroke-opacity:1;enable-background:accumulate;stop-color:#000000;stop-opacity:1"
           d="m 24.15776,16.218438 c -0.204185,0 -0.374337,-0.06806 -0.510455,-0.204178 -0.136119,-0.136118 -0.204178,-0.306266 -0.204178,-0.510443 0,-0.06806 0.01702,-0.153133 0.05105,-0.255222 L 28.003092,2.0621302 c 0.04537,-0.1474615 0.124779,-0.2665651 0.238218,-0.3573106 0.124779,-0.090746 0.272237,-0.1361184 0.442374,-0.1361184 0.204185,0 0.374336,0.068059 0.510454,0.2041776 0.136119,0.1361183 0.204178,0.3062662 0.204178,0.5104437 0,0.068059 -0.01702,0.1531332 -0.05105,0.2552219 L 24.838351,15.725009 c -0.04537,0.147461 -0.130449,0.266565 -0.255227,0.357311 -0.113425,0.09075 -0.255213,0.136118 -0.425364,0.136118 z m 7.183804,0 c -0.204185,0 -0.374336,-0.06806 -0.510454,-0.204178 -0.136119,-0.136118 -0.204178,-0.306266 -0.204178,-0.510443 0,-0.06806 0.01702,-0.153133 0.05105,-0.255222 L 35.186897,2.0621302 c 0.04537,-0.1474615 0.124779,-0.2665651 0.238218,-0.3573106 0.124764,-0.090746 0.272221,-0.1361184 0.442373,-0.1361184 0.204185,0 0.374337,0.068059 0.510455,0.2041776 0.136118,0.1361183 0.204178,0.3062662 0.204178,0.5104437 0,0.068059 -0.01702,0.1531332 -0.05105,0.2552219 L 32.022156,15.725009 c -0.04537,0.147461 -0.130449,0.266565 -0.255227,0.357311 -0.11344,0.09075 -0.255228,0.136118 -0.425365,0.136118 z"
           id="path7"
           sodipodi:nodetypes="ssscccssscccsssscccssscccs" />
      </g>
    </g>
  </g>
</svg>
