<?xml version="1.0" encoding="UTF-8" standalone="no"?>
<!-- Uploaded to: SVG Repo, www.svgrepo.com, Generator: SVG Repo Mixer Tools -->

<svg
   width="800px"
   height="800px"
   viewBox="0 0 18 18"
   version="1.1"
   id="svg1"
   sodipodi:docname="spider-slash - 副本.svg"
   inkscape:version="1.4.3 (0d15f75, 2025-12-25)"
   xmlns:inkscape="http://www.inkscape.org/namespaces/inkscape"
   xmlns:sodipodi="http://sodipodi.sourceforge.net/DTD/sodipodi-0.dtd"
   xmlns="http://www.w3.org/2000/svg"
   xmlns:svg="http://www.w3.org/2000/svg">
  <defs
     id="defs1">
    <rect
       x="-928.78379"
       y="-511.14276"
       width="835.28207"
       height="844.63224"
       id="rect2" />
    <rect
       x="1009.8186"
       y="-3.1167241"
       width="1184.3552"
       height="903.84999"
       id="rect4" />
    <rect
       x="0"
       y="116.87715"
       width="769.83085"
       height="683.12285"
       id="rect1" />
  </defs>
  <sodipodi:namedview
     id="namedview1"
     pagecolor="#ffffff"
     bordercolor="#000000"
     borderopacity="0.25"
     inkscape:showpageshadow="2"
     inkscape:pageopacity="0.0"
     inkscape:pagecheckerboard="0"
     inkscape:deskcolor="#d1d1d1"
     inkscape:zoom="0.6416994"
     inkscape:cx="377.9028"
     inkscape:cy="339.72293"
     inkscape:window-width="1560"
     inkscape:window-height="970"
     inkscape:window-x="-6"
     inkscape:window-y="-6"
     inkscape:window-maximized="1"
     inkscape:current-layer="layer1" />
  <g
     inkscape:groupmode="layer"
     id="layer1"
     inkscape:label="Layer 1">
    <path
       style="font-weight:bold;font-size:80px;line-height:76px;font-family:'jf-openhuninn-2.1';-inkscape-font-specification:'jf-openhuninn-2.1 Bold';letter-spacing:2.5px;word-spacing:-0.03px;white-space:pre;stroke:#000000;stroke-width:2.30714"
       d="m 2.4597862,16.791494 q -0.5416027,0 -0.9239084,-0.391795 -0.3823069,-0.391793 -0.3823069,-0.946834 0,-0.391795 0.2548712,-0.750943 Q 1.6633134,14.34278 2.045619,14.179529 L 13.419238,8.9882509 2.045619,3.7969685 Q 1.6633134,3.6337227 1.4084421,3.2745753 1.1535709,2.9154323 1.1535709,2.5236375 q 0,-0.5550447 0.3823069,-0.9468394 0.3823057,-0.3917948 0.9239084,-0.3917948 0.2867281,0 0.5097424,0.097951 l 12.7116874,5.84427 q 1.17878,0.5876921 1.17878,1.7304288 v 0.2611965 q 0,1.1427334 -1.17878,1.7304254 L 2.9695286,16.693548 q -0.2230143,0.09794 -0.5097424,0.09794 z"
       id="text1"
       aria-label="&gt;" />
  </g>
</svg>
