<?xml version="1.0" encoding="UTF-8" standalone="no"?>
<!-- Uploaded to: SVG Repo, www.svgrepo.com, Generator: SVG Repo Mixer Tools -->

<svg
   width="800px"
   height="800px"
   viewBox="0 0 18 18"
   version="1.1"
   id="svg1"
   sodipodi:docname="spider-plus.svg"
   inkscape:version="1.4.3 (0d15f75, 2025-12-25)"
   xmlns:inkscape="http://www.inkscape.org/namespaces/inkscape"
   xmlns:sodipodi="http://sodipodi.sourceforge.net/DTD/sodipodi-0.dtd"
   xmlns="http://www.w3.org/2000/svg"
   xmlns:svg="http://www.w3.org/2000/svg">
  <defs
     id="defs1">
    <rect
       x="0"
       y="116.87715"
       width="769.83085"
       height="683.12285"
       id="rect1" />
  </defs>
  <sodipodi:namedview
     id="namedview1"
     pagecolor="#ffffff"
     bordercolor="#000000"
     borderopacity="0.25"
     inkscape:showpageshadow="2"
     inkscape:pageopacity="0.0"
     inkscape:pagecheckerboard="0"
     inkscape:deskcolor="#d1d1d1"
     inkscape:zoom="0.3208497"
     inkscape:cx="1235.7811"
     inkscape:cy="246.2212"
     inkscape:window-width="1560"
     inkscape:window-height="970"
     inkscape:window-x="-6"
     inkscape:window-y="-6"
     inkscape:window-maximized="1"
     inkscape:current-layer="layer1" />
  <g
     inkscape:groupmode="layer"
     id="layer1"
     inkscape:label="Layer 1">
    <g
       id="text2"
       style="opacity:1"
       transform="matrix(0.8632296,0,0,0.8632296,1.2631243,1.2307765)">
      <path
         style="font-size:17.8287px;line-height:16.9372px;font-family:'jf-openhuninn-2.1';-inkscape-font-specification:'jf-openhuninn-2.1';letter-spacing:0.557145px;word-spacing:-0.00668574px;baseline-shift:baseline;display:inline;overflow:visible;vector-effect:none;enable-background:accumulate;stop-color:#000000;stop-opacity:1"
         d="M 8.9814429,18 Q 8.3876286,18 7.9422676,17.554639 7.4969071,17.109279 7.4969071,16.515464 V 10.465979 H 1.4474226 q -0.59381439,0 -1.03917521,-0.408248 Q 0,9.6123705 0,9.0185566 0,8.3876286 0.40824739,7.979381 0.85360821,7.5340203 1.4474226,7.5340203 H 7.4969071 V 1.484536 q 0,-0.63092797 0.4453605,-1.03917531 Q 8.3876286,0 8.9814429,0 9.6123708,0 10.020618,0.44536069 10.465979,0.85360803 10.465979,1.484536 v 6.0494843 h 6.012371 q 0.630928,0 1.039175,0.4453607 0.445361,0.4082476 0.445361,1.0391756 0,0.5938139 -0.445361,1.0391744 -0.408247,0.408248 -1.039175,0.408248 h -6.012371 v 6.049485 q 0,0.593815 -0.445361,1.039175 Q 9.6123708,18 8.9814429,18 Z"
         id="path3" />
      <path
         style="font-size:17.8287px;line-height:16.9372px;font-family:'jf-openhuninn-2.1';-inkscape-font-specification:'jf-openhuninn-2.1';letter-spacing:0.557145px;word-spacing:-0.00668574px;baseline-shift:baseline;display:inline;overflow:visible;vector-effect:none;enable-background:accumulate;stop-color:#000000;stop-opacity:1"
         d="m 8.9804688,-1.4257812 c -0.7406156,0 -1.4951866,0.3422058 -2.0156251,0.84960933 C 6.4127271,-0.05607422 6.0722656,0.73915238 6.0722656,1.484375 v 4.625 h -4.625 c -0.75216367,0 -1.52602702,0.3404803 -2.04687497,0.8613281 -0.53173243,0.5317328 -0.82617183,1.3208243 -0.82617183,2.0488282 0,0.722473 0.2978437,1.4724707 0.78320308,2.0019527 l 0.0429687,0.04492 0.0449219,0.04102 c 0.52948283,0.48536 1.2794795,0.783203 2.00195312,0.783203 h 4.625 v 4.625 c 0,0.752164 0.3404797,1.526027 0.8613281,2.046875 0.520848,0.520848 1.2947111,0.863281 2.0468751,0.863281 0.7460789,0 1.5424542,-0.343225 2.0625002,-0.896484 0.506693,-0.520406 0.847656,-1.27367 0.847656,-2.013672 v -4.625 h 4.587891 c 0.728004,0 1.515142,-0.292485 2.046875,-0.824219 0.520848,-0.520847 0.863281,-1.2947108 0.863281,-2.0468747 0,-0.734763 -0.344576,-1.5107122 -0.882813,-2.0312501 C 17.985288,6.4519635 17.211824,6.109375 16.478516,6.109375 h -4.587891 v -4.625 c 0,-0.73330852 -0.342589,-1.50677271 -0.878906,-2.02734375 C 10.491181,-1.0812058 9.7152315,-1.4257812 8.9804688,-1.4257812 Z m -0.00977,2.8339843 0.041016,0.044922 0.044922,0.042969 c 0.027331,0.025053 -0.015625,-0.097008 -0.015625,-0.011719 v 7.4746094 h 7.4375002 c 0.08529,0 -0.03677,-0.042955 -0.01172,-0.015625 l 0.04297,0.044922 0.04492,0.041016 c 0.02733,0.025053 -0.01758,-0.095055 -0.01758,-0.00977 0,0.039588 0.04562,-0.041716 -0.02734,0.03125 -0.0126,0.012597 0.08198,-0.00977 -0.03125,-0.00977 H 9.0410156 v 7.4746095 c 0,0.03959 0.045622,-0.04172 -0.027344,0.03125 l -0.023437,0.02148 -0.019531,0.02344 c -0.025053,0.02733 0.095055,-0.01758 0.00977,-0.01758 -0.039589,0 0.041717,0.04562 -0.03125,-0.02734 -0.072966,-0.07296 -0.027344,0.0083 -0.027344,-0.03125 V 9.0410156 h -7.474614 c -0.013894,0 -0.00992,-0.00701 -0.015625,-0.00586 0.00118,-0.00569 -0.00586,-0.00143 -0.00586,-0.015625 0,-0.1132335 -0.022363,-0.020606 -0.00977,-0.033203 0.072967,-0.072966 -0.00834,-0.027344 0.03125,-0.027344 H 8.921875 V 1.484375 c 0,-0.08529 -0.042955,0.036772 -0.015625,0.011719 L 8.927734,1.47461 8.949218,1.453126 c 0.072967,-0.072967 -0.00834,-0.027344 0.03125,-0.027344 0.085289,0 -0.034819,-0.044909 -0.00977,-0.017578 z"
         id="path4" />
    </g>
  </g>
</svg>
