<?xml version="1.0" encoding="UTF-8" standalone="no"?>
<!-- Uploaded to: SVG Repo, www.svgrepo.com, Generator: SVG Repo Mixer Tools -->

<svg
   fill="#000000"
   width="800px"
   height="800px"
   viewBox="0 0 24 24"
   version="1.1"
   id="svg1"
   sodipodi:docname="quote-alt-right-svgrepo-com.svg"
   inkscape:version="1.4.3 (0d15f75, 2025-12-25)"
   xmlns:inkscape="http://www.inkscape.org/namespaces/inkscape"
   xmlns:sodipodi="http://sodipodi.sourceforge.net/DTD/sodipodi-0.dtd"
   xmlns="http://www.w3.org/2000/svg"
   xmlns:svg="http://www.w3.org/2000/svg">
  <defs
     id="defs1" />
  <sodipodi:namedview
     id="namedview1"
     pagecolor="#ffffff"
     bordercolor="#000000"
     borderopacity="0.25"
     inkscape:showpageshadow="2"
     inkscape:pageopacity="0.0"
     inkscape:pagecheckerboard="0"
     inkscape:deskcolor="#d1d1d1"
     inkscape:zoom="0.3208497"
     inkscape:cx="858.65749"
     inkscape:cy="988.00154"
     inkscape:window-width="1560"
     inkscape:window-height="970"
     inkscape:window-x="-6"
     inkscape:window-y="-6"
     inkscape:window-maximized="1"
     inkscape:current-layer="svg1" />
  <path
     d="m 19.640794,5.9696697 -0.04007,-0.2693002 -0.04168,0.00963 C 18.290327,-0.22305537 10.71011,-2.034393 6.8958486,2.6833612 3.0815862,7.4011144 6.440352,14.433847 12.507528,14.431807 c 0.357465,0 0.700503,-0.0545 1.041938,-0.104197 -0.110604,0.37189 -0.224418,0.750193 -0.407158,1.090027 -0.18274,0.493717 -0.46807,0.921714 -0.751797,1.352915 -0.237241,0.466468 -0.655619,0.782255 -0.963391,1.181397 -0.322199,0.387922 -0.761417,0.646001 -1.109264,0.968201 -0.3414347,0.336626 -0.7886664,0.504939 -1.1445276,0.74218 -0.3718921,0.213196 -0.6956941,0.448834 -1.0419382,0.561043 l -0.8640067,0.355866 c -0.4824972,0.197167 -0.75821,0.312581 -0.75821,0.312581 L 7.2850163,24 8.2419959,23.769172 c 0.3061694,-0.07694 0.6796645,-0.16671 1.1044539,-0.274111 0.4344078,-0.08016 0.8976692,-0.299756 1.4138292,-0.50013 0.508144,-0.229226 1.099646,-0.381509 1.647865,-0.748591 0.551424,-0.349451 1.187809,-0.641193 1.748852,-1.109264 0.54341,-0.482498 1.199029,-0.900876 1.68313,-1.513214 0.528984,-0.573867 1.051555,-1.176589 1.457109,-1.862664 0.469674,-0.654017 0.788668,-1.372152 1.125294,-2.082273 0.304564,-0.710119 0.549821,-1.43627 0.750193,-2.141582 0.379907,-1.413829 0.549823,-2.757127 0.615545,-3.9064645 0.0545,-1.1509398 0.02245,-2.107919 -0.04489,-2.8004074 -0.02392,-0.2880637 -0.05817,-0.5751808 -0.102586,-0.8608014 z"
     id="path1"
     sodipodi:nodetypes="cccsccccccccccccccccccccccc"
     style="stroke-width:1.60297" />
</svg>
