<?xml version="1.0" encoding="UTF-8" standalone="no"?>
<!-- Uploaded to: SVG Repo, www.svgrepo.com, Generator: SVG Repo Mixer Tools -->

<svg
   width="800px"
   height="800px"
   viewBox="0 0 512 512"
   aria-hidden="true"
   role="img"
   class="iconify iconify--fxemoji"
   preserveAspectRatio="xMidYMid meet"
   version="1.1"
   id="svg1"
   sodipodi:docname="spider.svg"
   inkscape:version="1.4.3 (0d15f75, 2025-12-25)"
   xml:space="preserve"
   xmlns:inkscape="http://www.inkscape.org/namespaces/inkscape"
   xmlns:sodipodi="http://sodipodi.sourceforge.net/DTD/sodipodi-0.dtd"
   xmlns="http://www.w3.org/2000/svg"
   xmlns:svg="http://www.w3.org/2000/svg"><defs
     id="defs1" /><sodipodi:namedview
     id="namedview1"
     pagecolor="#ffffff"
     bordercolor="#000000"
     borderopacity="0.25"
     inkscape:showpageshadow="2"
     inkscape:pageopacity="0.0"
     inkscape:pagecheckerboard="0"
     inkscape:deskcolor="#d1d1d1"
     inkscape:zoom="1.815"
     inkscape:cx="356.74931"
     inkscape:cy="398.34711"
     inkscape:window-width="1560"
     inkscape:window-height="970"
     inkscape:window-x="-6"
     inkscape:window-y="-6"
     inkscape:window-maximized="1"
     inkscape:current-layer="svg1" /><path
     d="m 183.30648,29.616982 c 2.31765,-2.82303 -23.51294,11.647185 -29.43791,17.775072 -5.07999,5.789663 -13.97741,15.014139 -25.64268,33.711274 -8.83071,14.11824 -14.06372,20.199172 -19.13321,32.409532 -0.98119,2.39847 -2.12591,5.06949 -2.50748,5.99617 -0.38158,0.87217 -0.87218,2.34395 -1.09022,3.27064 -0.21804,0.87216 -0.5451,1.85335 -0.76315,2.18042 -0.21804,0.27255 -1.19923,3.1071 -2.18042,6.26872 -0.92668,3.16161 -2.18042,4.6354 -2.725529,6.43425 -0.98119,3.21612 -2.398461,8.93973 -4.088294,16.35317 -0.43608,2.0714 -1.090207,4.79693 -1.362762,5.99616 -0.272555,1.19924 -1.035699,4.63341 -1.635318,7.63149 -0.654127,2.99808 -1.471786,7.03186 -1.907873,8.99424 -0.43608,1.96238 -1.308254,6.21421 -1.907866,9.53935 -0.654127,3.27064 -1.526301,7.52246 -1.962381,9.37583 -1.073969,4.42091 -1.14398,21.40884 1.798849,25.14764 0.381572,0.16353 2.834549,-9.94119 5.342034,-11.522 4.905952,-2.99808 10.19348,-7.52046 17.71594,-9.15578 5.23302,-1.09021 18.26104,-1.14472 25.61997,0 2.23494,0.32707 5.56008,0.87217 7.35893,1.14473 1.79885,0.27255 5.23302,0.76315 7.63148,1.09021 2.39847,0.32706 6.32324,0.98119 8.7217,1.36276 2.39846,0.43609 5.23301,0.87217 6.26872,1.0357 8.34012,1.25375 18.96968,4.79694 32.9789,11.12016 5.50557,2.45298 7.08638,3.43417 7.08638,4.25183 0,0.87217 -0.65413,1.09021 -5.45106,1.68983 -2.99808,0.32706 -6.75931,0.65413 -8.28561,0.65413 -1.58081,0.0545 -3.92476,0.27254 -5.17851,0.5451 -5.50557,1.25375 -11.93781,2.12591 -16.18964,2.18042 -2.50749,0.0545 -5.72361,0.32706 -7.14089,0.59962 -1.41727,0.27255 -5.72361,0.65413 -9.59386,0.81766 -4.68791,0.27255 -8.12208,0.70863 -10.24799,1.41728 -2.78004,0.92667 -12.26488,5.06948 -16.9528,7.41343 -3.81573,1.85336 -17.5524,6.48677 -26.71018,8.99425 -1.19923,0.27256 -2.889059,0.81766 -3.815735,1.09021 -0.872174,0.27255 -2.616508,0.59962 -3.815745,0.76315 -1.199231,0.16353 -3.052589,0.49059 -4.088294,0.76315 -1.035699,0.32706 -3.924763,0.5451 -6.432247,0.5451 -4.251826,0 -4.633398,-0.10901 -7.35893,-1.96238 -2.063324,-0.93514 -3.542523,-11.26397 -5.832634,-11.60476 -3.800481,4.48787 -4.396841,17.74514 -4.088294,23.37905 0.163531,3.76123 0.490595,8.17659 0.817658,9.8119 0.272555,1.63532 0.763151,4.85145 1.144723,7.08638 0.327063,2.23493 1.090214,6.54127 1.689832,9.53935 0.599612,2.99808 1.144722,6.1597 1.253739,7.08638 0.599619,4.85144 4.796936,22.24032 8.503652,35.15933 6.704802,23.27602 15.590032,56.82029 23.548575,73.8821 2.50749,5.34204 6.7048,14.88139 7.46795,16.84378 0.38157,1.0357 1.19923,2.562 1.74434,3.37965 0.5451,0.76315 0.98119,1.74435 0.98119,2.18043 0,1.25374 4.6879,10.52054 7.03186,13.95471 1.14473,1.68983 8.83072,9.75739 17.06181,17.87947 15.75356,15.59003 20.16892,19.13322 27.69138,22.1313 7.08638,2.78004 9.53936,3.16161 12.80999,1.74434 l 2.0714,-0.81766 -1.85336,-1.96238 c -1.0357,-1.0357 -3.54319,-3.21613 -5.6691,-4.79693 -4.68791,-3.5977 -28.72708,-29.10866 -32.32477,-34.34167 -2.562,-3.70672 -6.59579,-10.84761 -9.2123,-16.35318 -0.70863,-1.47178 -1.52629,-3.1071 -1.79885,-3.5977 -0.27255,-0.49059 -2.45297,-5.39654 -4.90595,-10.90212 -2.45298,-5.50557 -5.06948,-11.39271 -5.83263,-13.02803 -2.45297,-5.45105 -7.30441,-26.07632 -8.72169,-29.94657 -0.76315,-2.12591 -1.68983,-4.57889 -2.0714,-5.45106 -1.19924,-2.83455 -2.45298,-6.7048 -4.08829,-12.53744 -0.27256,-0.92668 -0.87218,-2.99808 -1.36277,-4.63339 -1.09021,-3.87026 -3.543186,-14.66335 -4.142805,-18.53361 -2.834548,-17.71593 -2.834548,-39.08409 0,-43.06336 0.545104,-0.76315 1.362763,-2.18042 1.907875,-3.1071 0.98119,-2.01689 6.37774,-5.77812 11.50173,-8.06757 5.23302,-2.34395 5.34204,-2.34395 8.17658,-3.43416 1.5263,-0.59962 5.56008,-2.23494 8.99425,-3.65222 6.59578,-2.72552 14.99041,-5.56008 20.44147,-6.97735 4.52438,-1.19923 12.3739,-3.16161 13.3551,-3.37966 1.79884,-0.38157 9.75739,-2.56199 13.02802,-3.59769 1.85337,-0.54511 3.97928,-1.14473 4.63341,-1.30826 0.59961,-0.10902 3.43416,-0.87217 6.2142,-1.63532 3.65221,-1.03569 5.28753,-1.25374 5.99616,-0.87216 0.4906,0.32706 0.59962,0.59961 0.27256,0.59961 -1.36277,0 -11.71978,5.45106 -14.77237,7.74051 -2.99809,2.28944 -4.74242,3.43416 -12.80999,8.2856 -6.10518,3.65222 -11.06565,7.68599 -20.16892,16.35318 -12.26488,11.61075 -13.68216,14.66335 -11.50173,25.40194 0.43608,2.23492 1.0357,4.79692 1.36276,5.72361 0.27256,0.87216 1.36277,4.6879 2.45298,8.44913 1.09022,3.76123 2.83455,9.15778 3.87026,11.99234 3.21612,8.88522 4.08829,11.12016 4.57888,12.26488 0.21804,0.59961 1.19924,3.05259 2.12592,5.45105 0.92667,2.39847 2.01689,5.124 2.45297,6.10519 0.43608,0.92668 0.81766,1.85336 0.81766,2.01689 0,0.65413 6.10519,14.17275 9.21229,20.49598 6.48676,13.02803 12.75548,30.73798 25.72899,48.61745 1.41728,1.90787 3.10711,4.52438 3.70673,5.72361 0.92668,1.79885 1.79885,2.562 3.97927,3.48868 2.78004,1.19923 5.75186,7.57298 9.07701,8.11808 0.98119,0.21804 2.78004,0.54511 3.97927,0.81766 3.10711,0.70864 13.24608,1.93413 15.80807,1.17098 1.19924,-0.32706 2.34396,-0.59961 2.61651,-0.5451 0.59962,0.16353 0.4906,-0.16354 -1.09021,-3.43417 -0.81766,-1.68983 -1.85336,-2.99808 -2.34395,-2.99808 -0.43609,0 -1.47179,-0.32706 -2.28945,-0.76315 -0.76315,-0.43609 -2.34396,-1.0357 -3.48868,-1.41728 -4.74242,-1.5808 -14.58258,-14.95816 -18.18028,-18.61037 -1.14472,-1.19923 -3.5977,-4.74242 -5.39655,-7.90404 -1.79885,-3.21612 -4.46986,-10.3005 -5.94165,-12.69896 -3.16161,-5.01497 -6.75931,-17.11233 -9.7574,-23.87164 -1.14472,-2.562 -2.67101,-6.05068 -3.37965,-7.68599 -2.78004,-6.21421 -3.21613,-7.63149 -5.88714,-17.38889 -2.34396,-8.66718 -4.14281,-16.40768 -5.23302,-22.6764 -0.16353,-0.92668 -0.49059,-2.50749 -0.76315,-3.54319 -0.27255,-1.03569 -0.76315,-3.1071 -1.14472,-4.63339 -1.85336,-7.24992 0.21804,-12.10135 9.64837,-22.78543 1.30826,-1.47179 6.05068,-7.68599 8.01306,-10.41152 1.58081,-2.28944 11.71978,-10.46603 18.91517,-15.31748 12.10135,-8.06756 27.00253,-17.40592 26.14083,-16.08062 -7.8054,12.00475 -3.2473,10.16958 -8.3548,21.82314 -6.24601,18.9203 6.54906,31.3898 15.30187,46.29454 3.97927,7.63148 10.35701,9.54535 13.35509,12.3799 1.30826,1.25374 3.10711,2.45297 4.03378,2.67101 l 1.74434,0.32707 0.38158,-3.37966 c 0.21804,-1.85336 0.32706,-12.88676 0.21804,-16.64799 l -0.21804,-6.86833 6.65029,-0.16353 6.65029,-0.16354 -0.32706,6.70481 c -0.16353,3.70672 -0.16353,14.79463 0.0545,16.81152 l 0.43609,3.70672 1.68982,-0.32707 c 3.43419,-0.76314 12.64974,-2.66679 19.30003,-14.60461 13.26837,-18.22634 16.11834,-26.09507 14.22469,-46.45168 -1.2317,-8.70938 -6.19514,-17.37407 -6.81919,-23.54832 2.99808,1.25374 5.61928,6.45099 8.99893,8.46789 1.58081,0.92667 -0.16353,0 0,0 0.16353,0 4.79694,2.56199 6.43226,3.5977 1.63531,1.0357 3.05259,1.90786 3.21612,1.90786 0.32706,0 13.51862,9.2668 13.9002,9.7574 0.16353,0.21804 2.18042,1.90787 4.46987,3.76123 2.28944,1.85336 4.6879,4.03379 5.34203,4.90595 0.65413,0.81766 2.61651,3.43417 4.41536,5.83264 1.79885,2.39846 5.124,6.54127 7.35893,9.26679 6.59578,7.95855 7.95855,11.88331 6.26872,18.53361 -0.38158,1.52629 -0.87217,3.5977 -1.14472,4.63339 -0.27256,1.0357 -0.59962,2.61651 -0.76315,3.54319 -1.14472,6.43225 -2.88907,14.11824 -5.01498,21.69521 -1.36276,4.85145 -2.67102,9.53936 -2.94357,10.46604 -0.4906,1.79885 -0.3008,4.52438 -2.3177,8.88523 -0.70863,1.52629 -1.90787,4.25182 -2.61651,5.99616 -2.28944,5.34204 -5.91539,20.00139 -8.80445,24.58028 -1.47179,2.39846 -3.76123,8.7742 -5.01498,11.00914 -4.41535,7.84952 -8.44714,17.38288 -13.02603,20.70803 -5.34204,3.76123 -9.81391,7.84953 -12.70296,8.7762 -1.19924,0.38158 -2.78004,0.98119 -3.54319,1.41728 -0.81766,0.43609 -1.85336,0.76315 -2.28945,0.76315 -0.87216,0 -4.1428,5.88714 -3.54319,6.43225 0.16353,0.16353 0.27256,0.16353 0.27256,-0.0545 0,-0.16354 0.87217,0.0545 1.90787,0.49059 2.18042,0.87217 10.24999,1.0357 13.79318,0.21804 1.19923,-0.27255 2.99808,-0.59962 3.97927,-0.81766 3.32514,-0.5451 8.85697,-3.07885 11.69152,-4.27808 2.12591,-0.92668 2.99808,-1.68983 3.70672,-3.16162 0.49059,-1.0902 6.59378,-11.38871 10.35501,-16.62173 3.76123,-5.28752 8.06757,-12.72722 9.48484,-14.96216 2.94358,-4.46986 7.90604,-25.39593 9.32331,-28.39401 0.4906,-1.03571 2.01689,-4.30634 3.37966,-7.1954 1.36277,-2.94357 3.48868,-7.74051 4.74242,-10.62957 1.19924,-2.94357 1.22749,-6.10519 1.66357,-6.97735 0.98119,-2.39847 6.43225,-16.62573 8.66718,-22.83994 1.68984,-4.6334 4.52438,-13.95471 6.26872,-20.49598 1.30826,-4.74242 1.68983,-7.08637 1.85336,-11.17467 0.21804,-4.03378 0.10903,-4.6334 -1.58081,-7.95854 -1.47178,-2.99809 -3.16161,-4.90596 -10.24798,-11.61076 -10.57506,-10.08446 -18.20654,-15.80807 -27.90943,-21.04109 -0.87216,-0.49059 -3.16161,-2.0714 -5.06948,-3.48867 -3.21613,-2.50749 -13.4096,-7.95855 -14.88139,-7.95855 -0.43609,0 -0.32706,-0.21804 0.21804,-0.59961 0.98119,-0.54511 5.77813,0.5451 15.9716,3.5977 3.81574,1.14472 11.50174,3.27063 13.9002,3.81573 14.60884,3.43417 24.03917,6.32323 33.79657,10.35701 3.43417,1.41728 7.52246,3.0526 8.99425,3.65222 1.52629,0.5451 3.21612,1.25374 3.81574,1.52629 6.32323,2.78004 8.12207,3.70672 11.3382,5.88714 2.0714,1.36277 4.08829,3.21613 4.57888,4.14281 0.4906,0.92668 1.30826,2.28944 1.85337,3.05259 2.78004,3.97927 2.78004,31.91096 0,49.46336 -0.59962,3.76123 -2.99809,14.55433 -4.14281,18.53361 -0.4906,1.63531 -0.92668,3.37965 -1.0357,3.81574 -2.01689,8.34011 -11.55625,37.44477 -20.82304,57.34113 -1.03571,2.23494 -1.85337,4.14281 -1.85337,4.36085 0,0.16354 -2.28944,4.96046 -5.12399,10.68408 -5.23301,10.57505 -9.32131,17.44339 -12.80998,21.25913 -10.248,11.28369 -26.05607,27.52785 -28.67258,29.49023 -1.79885,1.30825 -4.19731,3.37965 -5.39654,4.57889 l -2.12592,2.18042 2.07141,0.81766 c 2.61651,1.14472 4.19731,1.09021 8.17658,-0.16354 10.84761,-3.32514 14.3908,-5.94165 32.37929,-23.7121 8.17659,-8.12208 15.86258,-16.18965 17.00731,-17.87947 2.39846,-3.48868 7.03186,-12.70097 7.03186,-13.95472 0,-0.49059 0.38157,-1.25373 0.87217,-1.79884 0.43609,-0.4906 0.92668,-1.25374 0.98119,-1.68983 0.21805,-1.0357 1.5263,-3.97927 9.2668,-21.04109 1.68983,-3.70671 3.0526,-6.81382 3.0526,-6.97735 0,-0.16353 0.49059,-1.30825 1.0357,-2.562 4.41535,-9.70288 13.68215,-41.36954 17.5524,-55.10621 0.54511,-1.96238 1.47179,-5.39655 2.12591,-7.63148 3.10711,-10.90212 4.96047,-25.09713 7.63149,-38.8338 0.27255,-1.52629 0.65413,-3.48868 0.87217,-4.36084 0.16353,-0.92668 0.43608,-3.5977 0.59961,-5.99617 0.16354,-2.39847 0.54511,-4.52438 0.87217,-4.74242 0.70864,-0.43609 1.25375,-4.25183 2.0169,-14.88139 2.19316,-10.41907 -3.95879,-25.60233 -4.03379,-25.55947 -0.56011,0.3734 -3.99487,10.56085 -8.44914,13.83969 h -4.19731 c -2.34396,0 -5.72361,-0.27255 -7.52246,-0.59961 -2.99809,-0.4906 -4.52438,-0.87217 -11.22919,-2.67102 -11.06565,-2.94358 -22.51287,-6.97735 -31.39809,-11.17467 -10.7931,-5.12399 -14.28177,-6.10519 -22.24032,-6.54127 -3.87026,-0.16353 -8.17659,-0.54511 -9.59387,-0.81766 -1.41727,-0.27256 -4.46986,-0.5451 -6.86833,-0.5451 -3.81574,-0.10903 -7.14088,-0.4906 -16.84377,-2.18043 -1.47179,-0.27255 -5.77812,-0.76315 -9.53935,-1.09021 -9.04876,-0.76315 -8.99425,-0.76315 -8.99425,-1.90787 0,-0.76315 1.74434,-1.79885 7.08637,-4.19732 14.71786,-6.65029 24.58428,-9.86641 34.34167,-11.3382 1.79885,-0.27255 4.85145,-0.76315 6.81383,-1.09021 1.96238,-0.27255 5.28752,-0.81766 7.35893,-1.14473 2.12591,-0.27254 5.28752,-0.76314 7.08637,-1.03569 9.48484,-1.47179 12.15587,-1.74435 19.89637,-1.90788 8.72169,-0.21804 14.17275,0.4906 20.16891,2.67103 1.36277,0.43608 2.83456,0.87216 3.27064,0.87216 0.43609,0 3.37966,4.03179 6.48676,5.83064 3.1071,1.85336 5.99617,10.89612 6.32323,10.73259 3.1394,-4.12943 2.36879,-20.30717 1.36276,-25.01237 -0.32706,-1.52631 -1.14472,-5.77814 -1.90787,-9.53937 -0.70864,-3.76123 -1.68983,-8.55816 -2.18042,-10.62956 -1.58081,-7.08638 -2.01689,-9.26681 -2.45298,-11.44723 -0.21804,-1.19923 -0.81766,-3.92476 -1.30825,-5.99616 -0.4906,-2.12592 -1.14472,-4.90596 -1.41728,-6.26872 -0.5451,-2.67102 -1.36276,-5.6691 -4.03378,-15.26296 -1.36277,-4.96047 -4.85144,-12.97552 -6.05067,-15.70105 -0.38158,-0.92668 -1.96238,-4.68791 -3.54319,-8.44914 -4.6334,-11.065651 -11.66527,-20.199172 -20.0599,-33.227202 -1.68983,-2.562 -4.0883,-6.32323 -5.45106,-8.39463 -4.30633,-6.704801 -8.72169,-11.610754 -18.75164,-20.932064 -8.50365,-7.904035 -24.21091,-18.242964 -27.09997,-19.333176 -6.18202,-0.63882 16.12782,18.87766 17.45159,20.041814 5.50558,5.178505 11.2837,13.191561 18.58812,25.892526 4.63339,8.06757 6.1597,7.55272 9.15778,16.32892 0.98119,2.83455 1.96238,5.669101 2.18042,6.268721 1.0357,2.507481 2.39846,6.323221 4.14281,11.174671 0.98119,2.83455 2.23493,6.26871 2.72552,7.63148 2.562,7.1954 8.17659,23.44155 9.7574,30.14635 1.85336,8.17659 4.08829,19.40577 4.08829,20.82304 0,1.5263 -0.65413,1.79885 -4.90595,2.34396 -0.92668,0.10902 -3.0526,0.49059 -4.79693,0.76315 -1.68983,0.27255 -4.96047,0.81766 -7.1954,1.14472 -5.6691,0.87217 -9.15778,1.52629 -15.80807,3.1071 -3.16161,0.70864 -6.10518,1.41728 -6.54127,1.5263 -1.52629,0.32706 -15.53552,4.68791 -16.62573,5.124 -0.59961,0.27255 -2.28945,0.92667 -3.81574,1.41727 -3.27064,1.14472 -14.82688,5.56008 -16.35318,6.26872 -0.59961,0.27255 -2.28944,0.98119 -3.81574,1.5808 -1.47178,0.54511 -5.94165,2.50749 -9.92092,4.36085 -3.92477,1.85336 -7.30442,3.32514 -7.46796,3.32514 -1.63531,0 1.58081,-3.87024 7.57698,-9.04875 9.04875,-7.90403 14.11824,-11.61076 25.29291,-18.47909 6.37774,-3.92476 12.70097,-8.01306 14.11824,-9.15778 1.41727,-1.14472 4.19731,-3.05259 6.21421,-4.25182 l 3.65221,-2.12592 -0.27256,-2.34395 c -0.43608,-3.16162 -1.14472,-6.05067 -2.61651,-10.19348 -0.70863,-1.96238 -1.68982,-4.90596 -2.12591,-6.54127 -1.09021,-3.81574 -6.05067,-17.71794 -7.7405,-23.05997 -1.25375,-3.97928 -3.43417,-11.2837 -3.87025,-13.02804 -0.10902,-0.490591 -0.54511,-2.125911 -0.98119,-3.597702 -0.43608,-1.52629 -1.19924,-4.19731 -1.68983,-5.99616 -3.48868,-13.13705 -7.63148,-18.53759 -10.7931,-22.57138 -8.66094,-11.367458 -31.44561,-16.340824 -31.1478,-15.234707 11.43524,8.134442 16.76405,17.292918 20.95433,36.988427 3.70895,29.465562 4.58835,20.263642 6.75931,41.973152 0.49059,4.36085 0.98119,6.54327 1.19923,8.06957 0.27255,2.28944 0.10902,3.21612 -1.14472,5.83263 -1.5263,3.21612 -2.23493,3.92476 -14.44531,13.9002 -7.1954,5.88714 -18.20653,17.0073 -23.11248,23.49406 -2.61651,3.37966 -3.81575,3.16162 -4.36085,-0.81766 -1.79885,-12.59194 0.70065,-24.94159 -7.2579,-32.84562 -2.39847,-2.34395 -4.38711,-2.83455 -4.93221,-2.28945 -0.49059,0.4906 -2.04315,0.19379 -2.26119,8.47939 -0.93606,11.91883 -8.3733,16.0129 -10.62357,16.13514 -2.03413,0.1105 -11.38872,-5.73655 -11.38872,-16.40768 -0.0545,-8.34012 -1.49804,-7.00762 -2.09766,-7.87978 -0.76315,-0.98119 -2.20668,-0.92669 -5.15025,1.96238 -6.65029,6.48676 -5.40254,14.6936 -8.40063,26.30435 -0.87216,3.54319 -1.63531,7.03187 -1.63531,7.74051 0,0.76314 -0.43608,1.5808 -0.98119,1.85336 -0.81766,0.43608 -1.36277,0.0545 -3.16162,-2.23494 -4.85144,-6.37774 -16.13513,-17.77045 -23.38504,-23.71211 -11.99232,-9.75739 -12.8645,-10.62956 -14.28177,-13.79117 -1.30825,-2.88907 -1.36277,-3.16161 -0.76315,-7.90403 0.32706,-2.72554 0.76315,-4.41736 0.92668,-6.92485 0.16353,-2.562 0.38157,-4.79693 0.4906,-5.01497 0.16353,-0.21804 0.49059,-1.90787 0.76314,-3.81574 2.16199,-12.61136 3.14471,-12.97137 5.50557,-32.106742 2.76323,-19.247939 7.78358,-28.057988 25.92976,-37.668108 -13.91216,-3.292942 -31.83155,10.608312 -36.17775,17.248898 -3.27063,4.14281 -7.30441,8.53591 -11.66526,24.5075 -0.27256,1.19924 -0.92668,3.270641 -1.30826,4.633411 -0.43608,1.36276 -1.63531,5.396551 -2.67101,8.994241 -1.79885,6.37774 -2.94357,10.19348 -7.08638,23.43955 -1.09021,3.5977 -2.0714,4.36285 -2.18042,4.79893 -0.43609,1.85336 -2.562,8.50365 -3.0526,9.53935 -0.49059,1.09022 -2.0714,8.06757 -2.12591,9.37583 0,0.38157 1.5263,1.52629 3.43416,2.67101 1.85337,1.09022 4.63341,2.94358 6.10519,4.14281 1.5263,1.19923 5.56008,3.87025 8.99425,5.99616 17.06181,10.41153 20.38696,12.80999 30.63495,21.80424 5.50557,4.79693 8.39463,8.01305 7.7405,8.61267 -0.27255,0.27256 -2.72553,-0.59962 -5.99616,-2.0714 -5.99617,-2.83455 -8.66718,-3.97927 -11.93782,-5.28753 -1.19924,-0.49059 -2.67102,-1.09021 -3.27063,-1.36276 -2.45298,-1.09021 -10.13897,-4.03379 -14.44531,-5.50557 -2.562,-0.87217 -5.124,-1.85336 -5.72362,-2.12591 -1.5808,-0.76316 -16.57121,-5.124 -22.34933,-6.54128 -5.56008,-1.36276 -7.03187,-1.63531 -14.71786,-2.94357 -2.99809,-0.49059 -7.14089,-1.14472 -9.2668,-1.52629 -2.07141,-0.32706 -4.36085,-0.65413 -5.01498,-0.76315 -3.81573,-0.43609 -4.52437,-0.81766 -4.52437,-2.45298 0,-0.92668 0.27255,-2.78004 0.54511,-4.19732 0.32706,-1.41727 0.81765,-3.6522 1.09021,-5.01496 2.50748,-12.64647 7.41343,-27.96593 11.44722,-39.41316 3.16161,-8.93974 6.7048,-18.64262 7.63148,-20.986571 0.21804,-0.59962 1.19923,-2.154171 2.18042,-4.988721 0.98119,-2.83455 2.0714,-4.66165 2.45298,-5.53382 0.38157,-0.92668 1.0357,-1.22749 1.41727,-2.26319 0.92668,-2.45298 8.7217,-15.91709 12.53744,-21.586196 4.6334,-6.922845 6.50727,-9.958327 12.14778,-15.481007 6.43486,-6.300439 12.40266,-10.926055 18.40305,-18.234873 z"
     id="path1"
     style="fill:#5c0e0e;fill-opacity:1;stroke:#a01d3c;stroke-width:1.22649;stroke-dasharray:none;stroke-opacity:1"
     sodipodi:nodetypes="scccccccccscscsccccsscccsccccscscccscscscccscccccscccccccccsscccccccccccccccccscccccsccscscccccccccscscccccccsccccscccccccccccccccsccssscscsccsccccccccccscsccccccccccccccccccscccccccscccccscccccccccscccscccccsccccsccccscccscccccccsccccccccccccccccccccccsccccccccccsccscccccccccccccccccccscsccccsccccccccccccccccccccccccccccccccsccccscccss" /></svg>
