<?xml version="1.0" encoding="UTF-8" standalone="no"?>
<!-- Uploaded to: SVG Repo, www.svgrepo.com, Generator: SVG Repo Mixer Tools -->

<svg
   height="800"
   width="800"
   version="1.1"
   id="_x32_"
   viewBox="0 0 512 512"
   xml:space="preserve"
   sodipodi:docname="spiderweb.svg"
   inkscape:version="1.4.3 (0d15f75, 2025-12-25)"
   xmlns:inkscape="http://www.inkscape.org/namespaces/inkscape"
   xmlns:sodipodi="http://sodipodi.sourceforge.net/DTD/sodipodi-0.dtd"
   xmlns="http://www.w3.org/2000/svg"
   xmlns:svg="http://www.w3.org/2000/svg"><defs
   id="defs2" /><sodipodi:namedview
   id="namedview2"
   pagecolor="#ffffff"
   bordercolor="#000000"
   borderopacity="0.25"
   inkscape:showpageshadow="2"
   inkscape:pageopacity="0.0"
   inkscape:pagecheckerboard="0"
   inkscape:deskcolor="#d1d1d1"
   inkscape:zoom="0.45375"
   inkscape:cx="322.86501"
   inkscape:cy="586.2259"
   inkscape:window-width="1560"
   inkscape:window-height="970"
   inkscape:window-x="-6"
   inkscape:window-y="-6"
   inkscape:window-maximized="1"
   inkscape:current-layer="_x32_" />
<style
   type="text/css"
   id="style1">
	.st0{fill:#000000;}
</style>

<path
   id="path1"
   style="fill:#591c5d;fill-opacity:1;stroke-width:1.06608"
   d="m 152.2832,2.6035156 c -0.42598,0.1312863 -1.29777,0.271509 -0.96089,0.9121079 0.40038,1.6392504 1.11492,3.1831771 1.6334,4.7868654 5.50905,14.9908071 7.70397,31.1964841 6.26262,47.1086941 -1.28287,14.952944 -5.94792,29.546696 -13.21521,42.656323 -11.34177,20.547624 -28.79922,37.694584 -49.605791,48.567934 -12.291962,6.40774 -25.819342,10.50103 -39.647289,11.65894 -14.918546,1.44028 -30.299956,0.0868 -44.325219,-5.41734 -2.093234,-0.77321 -4.0992231,-1.77235 -6.188168,-2.54647 -0.9296746,-0.28817 -2.0858535,0.0192 -2.4287535,1.01565 -0.4191917,0.6066 0.6064212,0.78381 0.9704584,1.09214 1.4314532,0.74122 2.9362045,1.33056 4.4103099,2.11671 15.0818052,7.41181 28.8533792,17.81402 39.2264762,31.11009 10.264771,13.06592 17.028703,28.6813 20.471926,44.88799 2.846004,13.02439 3.881622,26.51623 2.269092,39.77965 -2.285742,19.66113 -9.932933,38.67932 -21.995673,54.38177 -10.488972,13.723 -24.254444,24.92502 -39.8514425,32.35398 -1.9276702,1.01557 -4.0553952,1.76582 -5.613734,3.32989 -0.1674013,0.54583 0.46238,1.23524 1.0449219,0.96484 1.9940061,-0.53552 3.8797643,-1.41777 5.8482416,-2.04783 14.809805,-5.15723 30.740641,-7.14739 46.351976,-5.52187 11.419616,1.16277 22.715796,3.91694 33.257994,8.48869 21.623664,9.40868 39.882934,25.90128 52.321664,45.85194 10.32116,16.54994 16.67716,35.74089 17.19882,55.3017 0.41877,14.91309 -2.4517,29.85071 -7.96609,43.6924 -0.14444,0.59278 -0.64197,1.32311 -0.29585,1.8951 0.35039,0.25524 1.07314,0.70644 1.31374,0.0806 1.1604,-1.74849 1.78368,-3.77986 2.72536,-5.64499 2.77671,-5.97242 6.43125,-11.4877 10.21129,-16.86298 9.3653,-13.04312 21.38136,-24.32072 35.51723,-32.03545 13.86048,-7.61902 29.49988,-11.72683 45.24439,-12.73721 11.89758,-0.78719 23.90974,-0.10724 35.616,2.17646 14.63706,2.89485 28.77019,8.69688 40.86423,17.48968 12.42849,8.98096 22.59304,20.86805 30.29293,34.08161 2.52672,4.27974 4.8097,8.70947 6.79264,13.26426 0.15441,0.45185 0.57159,0.65263 0.9945,0.3834 0.46853,-0.15652 0.93332,-0.51985 0.66797,-1.0625 -0.94659,-2.72472 -2.06561,-5.39186 -2.91153,-8.15389 -3.68336,-11.47346 -5.44204,-23.54571 -5.37996,-35.58863 0.20214,-5.81938 0.5072,-11.66774 1.7522,-17.37331 4.31724,-22.13978 15.32292,-42.88256 31.08514,-59.00065 16.01681,-16.44997 36.92379,-28.21109 59.46507,-32.7796 19.38515,-3.97486 39.90062,-2.42135 58.3959,4.65834 1.56027,0.49081 3.02426,1.35433 4.65958,1.56001 0.48214,0.003 0.52181,-0.69659 0.64063,-1.03907 0.20286,-1.04766 -0.98026,-1.51694 -1.6897,-1.99061 -2.27784,-1.17071 -4.70314,-2.02254 -7.02511,-3.10181 -3.37271,-1.46394 -6.55057,-3.33012 -9.56807,-5.42388 -13.83306,-9.24898 -26.04549,-21.17913 -34.62756,-35.50401 -8.66099,-14.3412 -13.46202,-30.85257 -14.61772,-47.52612 -0.89463,-12.18213 -0.14564,-24.48797 2.19826,-36.47476 2.98639,-14.97148 8.98184,-29.41641 18.06032,-41.73174 9.30885,-12.71745 21.6527,-23.03379 35.32841,-30.77742 3.09897,-1.73359 6.22074,-3.45924 9.49834,-4.83235 0.83089,-0.34781 1.86908,-0.51543 2.4565,-1.22323 -0.0681,-0.65991 -0.38484,-1.39662 -0.89649,-1.81446 -1.37687,-0.0724 -2.55198,0.85983 -3.80032,1.31453 -11.11505,5.06443 -23.37711,7.20914 -35.53442,7.4716 -22.11404,0.54146 -44.20167,-6.1489 -62.68145,-18.21464 -21.97094,-14.25059 -39.12729,-35.94463 -47.44418,-60.817941 -6.17893,-18.306769 -7.31792,-38.295346 -3.14325,-57.168337 1.3641,-6.268702 3.33471,-12.391397 5.65636,-18.3664595 0.0709,-0.425055 0.50354,-1.2038193 -0.16406,-1.3574219 -0.38078,-0.1934298 -1.06023,-0.4668597 -1.21222,0.1539455 -1.10981,1.8366161 -1.74166,3.9122448 -2.75894,5.8000285 -6.14121,12.9066944 -14.85036,24.6002564 -25.57767,34.0557914 -11.33467,10.135172 -24.75639,17.993749 -39.291,22.525563 -15.27175,4.821983 -31.52408,6.018168 -47.43357,4.695656 C 230.6673,68.888471 216.33923,65.119776 203.43262,58.390049 189.56655,51.21526 177.53391,40.760199 167.89104,28.527973 162.8316,22.221308 158.58251,15.279065 155.2051,7.9353329 154.37484,6.2595193 153.70653,4.494044 152.7745,2.8746939 152.64073,2.7206498 152.53118,2.45556 152.2832,2.6035156 Z m 16.08203,31.3847654 c 1.52214,1.245415 3.18997,2.332059 4.44336,3.869141 1.90098,1.991741 3.84706,3.889415 5.82423,5.664941 13.69721,12.360615 30.6001,21.015374 48.50163,25.370377 27.14259,6.677178 56.60585,3.770559 81.78157,-8.441568 10.41883,-5.061284 20.20806,-11.777686 28.59804,-19.853144 1.66317,-1.640849 3.29799,-3.321987 5.20064,-4.691332 1.31672,-1.052557 2.6329,-2.105772 3.94936,-3.158649 -0.94975,3.149906 -1.62294,6.394304 -2.85709,9.450724 -5.29909,12.660861 -9.74744,25.720272 -16.30278,37.819336 -5.63701,10.55059 -13.23352,20.249203 -23.04543,27.213113 -13.69662,9.74768 -30.54621,14.68689 -47.29509,14.80946 -16.98201,0.12201 -34.08549,-4.82432 -48.01593,-14.6242 -10.5906,-7.428631 -19.22412,-17.58852 -24.91045,-29.204233 -4.725,-9.605811 -8.72107,-19.546359 -12.86815,-29.40795 -1.34976,-3.303173 -2.7973,-6.571434 -4.11649,-9.883621 -0.61796,-2.424759 -1.23603,-4.849489 -1.85421,-7.274192 0.98893,0.780599 1.97786,1.561198 2.96679,2.341797 z m 181.61524,5.816407 c 0.23854,2.196402 0.5665,4.386141 0.52352,6.600935 0.13248,4.745946 0.57833,9.481508 1.30851,14.172502 0.35718,2.249538 0.83674,4.774641 1.33203,7.001953 1.32808,5.92575 3.11986,11.723792 5.36934,17.405451 5.11175,12.952114 12.5987,25.062391 21.82218,35.561791 2.13259,2.42028 4.35162,4.75432 6.59559,6.94682 8.50466,8.29151 18.2578,15.43636 28.8323,20.9736 14.21112,7.47722 30.11059,12.10977 46.20328,13.27027 2.4635,0.18525 4.87529,0.22666 7.33845,0.5847 1.89415,0.21453 3.78841,0.4281 5.68261,0.64213 -3.97325,1.98842 -7.90083,4.09201 -12.06454,5.66431 -9.47654,3.89921 -18.95359,7.80084 -28.34721,11.89647 -13.4383,5.42429 -28.48807,6.41201 -42.64382,3.55063 -15.80478,-3.23335 -30.41678,-11.60043 -41.53814,-23.24185 -13.43314,-13.95659 -22.0285,-32.62643 -23.30938,-52.00157 -0.83929,-12.188793 1.33912,-24.56455 6.15607,-35.771158 4.07259,-10.079268 8.24806,-20.117915 12.43852,-30.148001 1.28052,-2.406798 2.56109,-4.813567 3.8417,-7.220312 0.153,1.370443 0.30599,2.740886 0.45899,4.111329 z m -186.59375,3.917968 c 1.41139,0.226589 3.14372,0.127147 4.08203,1.423828 0.60623,1.032475 0.86214,2.239538 1.36446,3.329955 4.94875,12.429879 11.63072,24.215291 15.0144,37.23304 2.89036,10.821671 2.95334,22.292711 0.85356,33.261221 -3.59663,18.71676 -13.93947,36.04223 -28.705,48.09302 -7.08242,5.84051 -15.19904,10.39181 -23.83029,13.50584 -11.21355,4.17694 -23.39411,6.1059 -35.31897,4.61049 -8.086646,-0.96132 -15.918918,-3.51511 -23.256172,-7.00193 -8.950807,-4.01135 -18.211756,-7.50361 -27.28827,-11.34453 -2.517537,-1.21136 -5.035018,-2.42283 -7.552468,-3.63437 4.409109,-0.5421 8.819771,-1.08474 13.256232,-1.34469 17.006263,-1.46114 33.909064,-6.763 48.848558,-15.29012 8.33514,-4.73839 16.10518,-10.46241 23.12959,-16.98629 8.76155,-8.17138 16.47604,-17.75773 22.50014,-28.20467 5.44029,-9.390469 9.56955,-19.542404 12.1854,-30.076575 0.94612,-3.826797 1.73583,-7.885523 2.2591,-11.866516 0.4129,-3.087552 0.71685,-6.416223 0.86204,-9.543536 0.11449,-2.118533 0.13526,-4.240396 0.16206,-6.361432 0.47787,0.06576 0.95573,0.13151 1.4336,0.197265 z m 32.73047,56.544924 c 3.72897,3.00964 7.41781,6.08376 11.42187,8.72851 4.58059,3.07742 9.7447,5.93162 14.86094,8.11241 13.16511,5.68351 27.77303,7.6943 42.02383,6.49111 1.2232,-0.11235 2.55707,-0.24621 3.79856,-0.40968 8.76223,-1.1077 17.43817,-3.62723 25.36159,-7.3911 6.6704,-3.15147 12.95786,-7.18262 18.67041,-11.75705 2.78637,-2.21374 5.5892,-4.406658 8.38428,-6.610139 -3.11478,7.421099 -6.18872,14.861429 -8.99219,22.406329 -3.39677,8.8954 -7.27007,17.83804 -13.55707,25.11289 -6.68171,7.74552 -15.82657,13.17834 -25.60048,16.03623 -13.88281,4.00243 -29.26126,2.38557 -42.03954,-4.34449 -10.52732,-5.49234 -19.23161,-14.43724 -24.31388,-25.17992 -4.87164,-9.73471 -8.62369,-19.97383 -12.19486,-30.24264 -0.44701,-1.263452 -0.89403,-2.526902 -1.34104,-3.790352 1.17253,0.945963 2.34505,1.891927 3.51758,2.837892 z m 127.79492,3.19922 c 0.57341,5.78748 1.14864,11.59482 2.49461,17.26478 0.61358,2.7331 1.37792,5.45699 2.22219,8.04381 3.61186,11.07823 9.61142,21.34626 17.40606,30.00067 9.97779,11.19117 22.75977,19.86872 36.88395,24.91753 7.27986,2.6412 14.87544,4.30753 22.52807,5.42267 2.00737,0.32837 4.01451,0.65813 6.02176,0.98726 -9.20507,3.71606 -18.27626,7.70443 -27.47858,11.43141 -4.12648,1.58968 -8.18669,3.43042 -12.51171,4.42581 -11.11654,2.58321 -22.96294,0.66626 -33.19808,-4.17466 -8.19855,-3.86909 -15.42839,-9.7564 -20.85759,-17.01876 -6.33625,-8.11933 -10.83977,-17.87342 -11.83526,-28.19351 -1.00985,-9.85509 1.14508,-19.82288 5.07698,-28.84563 3.41365,-8.25806 6.89895,-16.48965 10.75973,-24.55106 0.66987,-1.43986 1.33956,-2.87981 2.00935,-4.319698 0.15951,1.536458 0.31901,3.072918 0.47852,4.609378 z m -131.55664,1.65234 c 1.69298,4.54139 3.45896,9.05877 5.55098,13.43394 3.69327,7.98937 7.72228,16.0072 9.20908,24.76627 1.92434,10.94844 -0.38724,22.36523 -5.41197,32.19109 -5.84183,11.37954 -15.39408,20.95414 -27.08034,26.27156 -8.2823,3.79499 -17.48844,5.8443 -26.61365,5.05005 -5.63573,-0.45157 -11.12066,-2.08372 -16.25218,-4.42133 -9.15113,-4.1506 -18.55031,-7.72109 -27.7981,-11.64428 -0.87184,-0.36355 -1.74369,-0.7271 -2.61554,-1.09066 8.52114,-1.54532 17.10781,-2.93871 25.36952,-5.60569 8.79236,-2.74532 17.28226,-6.56144 24.95275,-11.68532 2.33635,-1.56065 4.81664,-3.39003 7.06043,-5.27456 8.17027,-6.81025 14.85088,-15.34114 19.74621,-24.77037 1.7681,-3.39905 3.40249,-7.07353 4.76142,-10.73024 0.57002,-1.50171 1.06486,-2.93625 1.57795,-4.50448 2.2271,-6.69503 3.65713,-13.6171 4.86711,-20.55825 0.34896,-1.89859 0.6996,-3.79687 1.04938,-5.69531 0.54231,1.42253 1.08463,2.84505 1.62695,4.26758 z m 23.73047,45.17383 c 4.82394,3.20196 9.71048,6.35673 15.00001,8.7469 9.06919,4.2361 19.15147,6.5563 29.18438,5.84807 3.01989,-0.18614 6.12414,-0.66264 8.9786,-1.32475 5.51796,-1.26665 10.90658,-3.37211 15.82956,-5.93052 4.25631,-2.1873 8.23554,-4.85538 12.30042,-7.369 -2.65935,9.61677 -5.05487,19.49687 -10.17017,28.17146 -3.75866,6.57106 -9.5891,12.13165 -16.77348,14.74149 -6.20473,2.33352 -12.98143,2.8766 -19.54568,2.23887 -7.17073,-0.81705 -14.04007,-4.09913 -19.10278,-9.25627 -5.17396,-5.12112 -8.57661,-11.7076 -11.20334,-18.42287 -2.67988,-6.53597 -5.24129,-13.11911 -7.89987,-19.66408 1.13412,0.74023 2.26823,1.48046 3.40235,2.2207 z m 85.26367,1.98047 c 0.59445,-0.0917 0.95734,0.46919 1.14313,0.9413 1.24334,5.79366 2.58119,11.59589 4.78198,17.11405 3.57276,9.19095 9.16686,17.70238 16.75535,24.06922 8.13063,6.938 18.14544,11.3191 28.43641,13.93654 2.42157,0.59974 5.0511,1.23207 7.55496,1.83877 0.75392,0.18246 1.50784,0.36492 2.26176,0.54738 -4.89915,1.9229 -9.75715,3.8911 -14.54101,5.99805 -7.02752,3.07993 -14.12744,6.51873 -21.87305,7.23633 -9.2963,0.84176 -18.68811,-2.83777 -25.45681,-9.15554 -7.74241,-7.0901 -12.46859,-17.59577 -11.89694,-28.15345 0.28262,-6.25187 2.82877,-12.07158 5.0648,-17.82101 2.13777,-5.28818 4.35357,-10.55028 6.43853,-15.85623 0.29694,-0.4164 0.78014,-0.90379 1.33089,-0.69541 z m -89.30469,1.02539 c 1.03792,0.13347 1.11895,1.38924 1.4844,2.16392 1.32257,3.63774 2.7398,7.16367 4.33038,10.67316 2.88782,6.55919 5.93425,13.26437 6.52346,20.49905 0.52122,6.33729 -0.91328,12.80156 -4.05932,18.32706 -5.32011,9.5358 -14.93868,16.6684 -25.70969,18.65515 -6.1976,1.11123 -12.80854,0.27724 -18.35451,-2.7809 -6.58213,-3.21727 -13.52118,-5.60776 -20.24527,-8.49815 -1.46048,-0.60239 -2.92104,-1.20457 -4.38156,-1.80687 7.34367,-1.79911 14.80506,-3.37816 21.74153,-6.47719 9.44089,-4.02235 17.99285,-10.33357 24.11989,-18.61454 6.15905,-8.14982 9.92022,-17.86275 12.1842,-27.76051 0.33684,-1.2548 0.53926,-2.54955 0.94657,-3.78253 0.3881,-0.44822 0.7479,-0.98667 1.39227,-0.6038 z m 264.9375,15.20312 c -1.59157,1.92344 -3.18806,3.84147 -4.94809,5.61462 -11.2211,12.02377 -20.32201,26.16066 -25.77846,41.71902 -3.35269,9.42641 -5.43557,19.47542 -6.23148,29.52238 -1.44054,18.01643 0.6693,36.43277 7.10559,53.37331 5.33469,14.20235 13.64312,27.1805 23.73371,38.46895 1.5162,1.75751 2.71687,3.76417 4.09825,5.62807 0.40201,0.57025 0.80402,1.14051 1.20603,1.71076 -3.0524,-1.1318 -6.20852,-2.00844 -9.16308,-3.38767 -10.00826,-4.8604 -20.70423,-8.08418 -30.85484,-12.61547 -8.05707,-3.56092 -15.81133,-8.05741 -22.20344,-14.18245 -12.19294,-11.70807 -20.20861,-27.55344 -22.85233,-44.21771 -3.56135,-21.98719 1.92659,-45.35639 15.19796,-63.28212 8.11911,-11.08865 19.26502,-19.90487 31.87518,-25.35375 11.04866,-5.05482 22.33264,-9.58535 33.69737,-13.87378 2.6394,-0.82156 5.27888,-1.64285 7.91841,-2.464 -0.93359,1.11328 -1.86718,2.22656 -2.80078,3.33984 z M 37.052734,167.14844 c 2.833815,0.30726 5.74749,0.3357 8.441235,1.38071 3.177465,1.12703 6.135367,2.7801 9.306306,3.92751 12.610144,5.05905 25.282073,10.43161 36.299277,18.51591 9.690448,7.05711 17.677878,16.43207 23.062708,27.14613 10.96649,21.67289 11.61946,48.13064 2.19098,70.46473 -5.33319,12.75231 -14.06041,24.12971 -25.284985,32.24321 -6.654241,4.87836 -14.179604,8.37256 -21.710833,11.65774 -8.426808,3.6026 -17.024351,6.79077 -25.474433,10.33426 -2.591101,0.80232 -5.182309,1.6043 -7.773614,2.40597 2.425495,-3.01495 4.664506,-6.19622 7.414445,-8.93287 3.703246,-4.01213 7.107886,-8.36304 10.089384,-12.79792 9.791143,-14.55773 16.074608,-31.37785 18.691484,-48.7028 2.057081,-13.6178 1.857025,-27.87293 -0.741995,-41.5487 -2.879336,-15.25117 -8.811744,-30.10549 -17.52781,-43.03553 -1.48862,-2.22438 -3.064554,-4.38825 -4.673603,-6.44482 -3.850208,-4.98348 -8.209205,-9.54348 -12.767328,-13.88057 -1.056301,-1.02727 -2.112097,-2.05506 -3.168171,-3.08257 1.208985,0.11653 2.417969,0.23307 3.626953,0.34961 z m 195.304686,22.93164 c 3.93872,2.08734 7.88777,4.23008 12.17657,5.52107 3.75541,1.18756 7.721,1.89131 11.59645,1.92677 6.87451,0.0991 13.62692,-1.82512 19.80604,-4.73672 2.39122,-1.15274 4.77364,-2.32418 7.16899,-3.46893 -8.91045,21.5448 -17.82039,43.08981 -26.73047,64.63476 -9.04907,-21.83752 -18.09596,-43.67594 -27.14453,-65.51367 1.04232,0.54557 2.08463,1.09115 3.12695,1.63672 z m -3.08594,3.51758 c 8.21036,19.797 16.42318,39.59299 24.63672,59.38867 -20.62974,-8.54381 -41.25778,-17.09175 -61.88867,-25.63281 6.05597,-2.28172 12.27884,-4.4069 17.62881,-8.14568 1.22146,-0.83165 2.3887,-1.74114 3.51768,-2.69417 0.27564,-0.26041 0.84839,-0.74075 1.22955,-1.11057 5.19752,-4.76784 8.86598,-11.01626 11.10265,-17.668 0.80691,-2.37638 1.65318,-4.85686 2.47248,-7.27612 0.4336,1.04623 0.86719,2.09245 1.30078,3.13868 z m 183.18164,0.82031 c -2.78394,3.79216 -5.6828,7.64837 -8.17968,11.55469 -7.39396,11.43686 -13.08008,24.1807 -15.19239,37.70404 -0.35108,2.19471 -0.60087,4.3955 -0.761,6.66407 -0.55897,7.67101 0.0836,15.59776 1.82572,23.16009 3.08616,13.55435 9.44771,26.10798 17.30516,37.5309 2.10963,3.07211 4.18967,6.16439 6.27759,9.25144 -6.47138,-3.18154 -12.83169,-6.63317 -19.59931,-9.16324 -8.50937,-3.37251 -17.34179,-6.40836 -24.74874,-11.94554 -6.61262,-4.89422 -11.52979,-11.78035 -14.98611,-19.18165 -5.01768,-10.89131 -6.42726,-23.38223 -4.00815,-35.12439 2.56085,-12.67828 9.53437,-24.46808 19.63527,-32.58713 4.33485,-3.53408 9.25575,-6.27346 14.33371,-8.57259 10.09787,-4.71327 20.52262,-8.66813 30.79911,-12.96647 -0.90039,1.22526 -1.80078,2.45052 -2.70118,3.67578 z m -126.96679,-0.26758 c 2.85741,5.40799 5.4389,10.88395 8.78125,16.01563 1.89832,3.02592 4.35296,5.70049 7.27937,7.75697 3.25988,2.30742 6.83226,4.01178 10.41707,5.79033 2.85236,1.37855 5.70854,2.7488 8.56332,4.12262 -20.62388,8.55554 -41.24858,17.10911 -61.87109,25.66797 8.51787,-20.60241 17.04168,-41.20236 25.56445,-61.80274 0.42188,0.81641 0.84375,1.63281 1.26563,2.44922 z m -183.79492,-0.80273 c 9.80776,2.98417 19.63268,6.13621 28.76464,10.86277 7.86487,4.03274 15.26228,9.23084 20.93992,16.06943 7.22494,8.50887 11.18207,19.4674 12.14111,30.51493 1.06688,11.23104 -1.18762,22.77766 -6.5856,32.69852 -5.38486,9.97871 -14.06097,18.27724 -24.5872,22.62701 -2.86053,1.14323 -5.79677,2.09098 -8.63473,3.29592 -6.75097,2.71655 -13.36704,5.75762 -20.13385,8.43532 -0.60785,-0.044 -1.31488,0.0514 -1.3849,-0.73724 -0.39343,-0.49261 -0.15554,-1.00414 0.15674,-1.46512 3.8043,-4.7088 7.59636,-9.47031 10.59749,-14.7481 2.66072,-4.5673 4.90813,-9.40797 6.68341,-14.32493 2.21713,-6.13831 3.76796,-12.56111 4.60742,-19.07226 1.00113,-7.88265 0.97815,-16.05722 -0.17774,-23.98243 -0.28674,-1.91362 -0.65535,-4.01913 -1.08666,-5.9849 -2.26016,-10.48663 -6.50748,-20.54268 -12.49146,-29.44869 -2.15498,-3.20251 -4.64882,-6.35719 -7.21484,-9.31836 -1.98165,-2.23493 -3.925418,-4.50308 -5.886722,-6.75586 1.430989,0.44466 2.861982,0.88932 4.292972,1.33399 z m 260.10937,22.47265 c -2.94116,4.42553 -5.84914,8.89616 -8.10729,13.719 -1.70971,3.57797 -3.10034,7.18002 -4.17396,11.00366 -0.64818,2.3104 -1.22598,4.95263 -1.57458,7.46846 -1.44327,9.84731 -0.005,19.99232 3.54502,29.25342 2.25194,6.02606 5.3845,11.67208 8.77512,17.12268 0.91016,1.51742 1.82068,3.03461 2.731,4.55192 -5.46253,-2.65085 -10.80248,-5.43387 -16.56221,-7.40097 -6.25181,-2.28929 -12.77342,-4.46856 -17.91185,-8.8702 -7.41361,-6.23591 -11.69334,-15.81812 -11.91466,-25.45376 -0.34332,-10.74488 4.20542,-21.70168 12.5745,-28.56426 4.2758,-3.49974 9.22329,-6.07061 14.23621,-8.33973 6.67631,-2.93078 13.61546,-5.18941 20.46473,-7.67186 -0.69401,1.06055 -1.38802,2.1211 -2.08203,3.18164 z m -208.38086,-0.68554 c 1.7715,0.31578 3.52762,0.78517 5.2865,1.18855 9.99469,2.49623 19.71694,7.00038 27.15366,14.2581 5.46618,5.36345 9.4198,12.43676 10.37122,20.09427 1.02134,7.63217 -0.80804,15.40327 -4.07072,22.29718 -2.43961,5.38277 -6.53794,10.05579 -11.76855,12.86391 -3.61739,1.92584 -7.51942,3.2268 -11.27272,4.85362 -6.28521,2.60326 -12.56497,5.21973 -18.84783,7.82913 4.09121,-6.69992 8.32281,-13.39241 11.09097,-20.77712 0.70252,-1.81409 1.32289,-3.65917 1.87778,-5.52366 0.14166,-0.50178 0.35294,-1.20795 0.47905,-1.7232 2.71255,-10.03681 2.67728,-20.8197 -0.29489,-30.79549 -2.23423,-7.77989 -6.11401,-14.97734 -10.64839,-21.64465 -0.43987,-0.59996 -1.01582,-1.29598 -0.75933,-2.07169 0.28099,-0.45362 0.62392,-0.81012 1.17864,-0.86263 0.0749,0.005 0.14974,0.009 0.22461,0.0137 z m 168.85156,16.50585 c -2.09747,4.03531 -4.22207,8.09464 -5.51029,12.47688 -2.03753,6.46377 -2.47102,13.45349 -0.98336,20.08165 1.00536,4.81475 2.96948,9.35494 5.14241,13.74433 0.55669,1.18153 1.11305,2.36321 1.6696,3.5448 -21.07833,-8.73219 -42.15741,-17.46257 -63.23632,-26.19336 21.50261,-8.9148 43.00274,-17.8356 64.5039,-26.7539 -0.52864,1.0332 -1.05729,2.0664 -1.58594,3.0996 z m -130.82421,-2.4121 c 1.31339,0.48471 2.59896,1.10056 3.91249,1.61212 19.68096,8.15573 39.36107,16.31355 59.04258,24.46795 -21.22401,8.79584 -42.44735,17.59328 -63.66992,26.39258 2.54976,-5.62106 5.32023,-11.17375 6.57618,-17.22987 1.63373,-7.3209 1.06617,-15.10386 -1.62351,-22.10731 -1.45827,-3.93765 -3.609,-7.56296 -5.69095,-11.19016 -0.33314,-0.64529 -0.0539,-1.45538 0.50008,-1.84148 0.31783,-0.0375 0.63456,-0.2174 0.95305,-0.10383 z m 68.83398,28.55664 c 21.4886,8.91188 42.97866,17.82024 64.46875,26.72851 -5.18971,1.54794 -10.48129,2.87083 -15.41797,5.14258 -1.10222,0.52225 -2.41059,1.18347 -3.55199,1.83577 -0.73445,0.42315 -1.36788,0.8033 -2.00729,1.22585 -5.80738,3.74283 -10.50523,9.13386 -13.48197,15.36393 -1.7939,3.61706 -2.96042,7.49526 -4.13648,11.34203 -0.42401,0.78585 -1.14173,1.37879 -1.68555,2.08594 -9.01763,-21.638 -18.03498,-43.27612 -27.05273,-64.91407 0.95507,0.39649 1.91015,0.79297 2.86523,1.18946 z m -6.36914,2.13867 c -8.5935,20.83918 -17.19071,41.67683 -25.78516,62.51562 -1.25958,-3.78514 -2.38771,-7.61861 -3.8789,-11.32226 -0.20405,-0.44987 -0.51921,-1.2353 -0.78513,-1.80984 -3.3021,-7.33023 -8.8342,-13.69303 -15.84905,-17.67364 -2.1085,-1.24241 -4.29614,-2.24682 -6.52403,-3.11613 -2.85506,-1.1142 -5.81204,-1.95704 -8.75,-2.79688 -0.46375,-0.16692 -0.93895,-0.68218 -0.93693,-1.15461 0.0492,-0.56208 0.23972,-1.07713 0.78976,-1.31434 20.96094,-8.73927 41.93212,-17.4554 62.89717,-26.18534 -0.39257,0.95247 -0.78515,1.90494 -1.17773,2.85742 z m 3.6582,1.96094 c 8.35327,20.15065 16.71093,40.29948 25.06641,60.44921 -5.28632,-2.46944 -10.50384,-5.24221 -16.21289,-6.62109 -0.85933,-0.20426 -1.97888,-0.47148 -2.95659,-0.63687 -7.29051,-1.34272 -14.95082,-0.43301 -21.79256,2.27517 -4.03265,1.5867 -7.82145,3.70949 -11.69421,5.63904 8.80152,-21.32184 17.60357,-42.64347 26.40625,-63.96484 0.39453,0.95313 0.78906,1.90625 1.18359,2.85938 z m -68.92969,26.00195 c 10.71319,-0.16317 21.09476,5.22592 27.83594,13.42969 5.91149,7.12451 9.1766,16.62521 8.01222,25.89075 -0.95167,8.20263 -4.67247,15.691 -7.93718,23.16189 -1.75805,4.02016 -3.40035,8.08934 -5.07504,12.14462 -1.61231,-7.0162 -2.9792,-14.13566 -5.67503,-20.84129 -3.17632,-8.2138 -7.95899,-15.86317 -14.35241,-21.95676 -4.20668,-4.06681 -9.10576,-7.37426 -14.32217,-10.00468 -1.28442,-0.63222 -2.78504,-1.346 -4.19185,-1.92695 -5.44169,-2.29692 -11.21087,-3.90102 -16.92927,-5.07465 -2.19009,-0.47345 -4.38018,-0.94686 -6.57028,-1.42028 6.82418,-2.92374 13.51737,-6.11826 20.43417,-8.85803 5.48011,-2.11636 11.14967,-4.00107 17.04044,-4.47205 0.57653,-0.0351 1.1528,-0.0634 1.73046,-0.0723 z m 134.84766,0.082 c 9.17636,0.0156 18.0063,3.11457 26.27974,6.8386 4.62807,2.10846 9.18689,4.36412 13.7769,6.55398 -3.94937,0.84246 -8.03412,1.61796 -11.88476,2.57031 -8.02685,1.99155 -15.91122,5.19208 -22.75,9.75586 -7.68311,5.06091 -14.02746,12.0526 -18.54297,20.05273 -1.85074,3.27609 -3.50694,6.86914 -4.83589,10.46407 -0.49893,1.34478 -1.0524,2.96292 -1.5082,4.43654 -0.54882,1.77027 -1.01828,3.48641 -1.4899,5.324 -0.64399,2.51511 -1.28858,5.03007 -1.93359,7.54493 -2.8709,-7.67295 -6.06482,-15.21931 -8.91797,-22.89844 -1.71559,-4.60822 -3.14807,-9.41963 -3.13898,-14.38042 -0.22311,-11.46899 5.61391,-22.75261 14.84788,-29.48884 5.78286,-4.26438 12.90283,-6.71618 20.09774,-6.77332 z m 36.40039,16.9043 c 9.31232,-0.0216 18.42239,2.46797 27.11569,5.6191 9.6532,3.57294 18.83461,8.25944 28.13822,12.63285 -5.3271,0.55689 -10.67039,0.9242 -15.93724,1.70493 -4.13985,0.63664 -8.38529,1.54887 -12.32057,2.68765 -7.47154,2.13592 -14.84233,5.35697 -21.51154,9.51791 -9.33338,5.7921 -17.53037,13.38524 -24.14081,22.15006 -1.57421,2.10176 -3.17875,4.4617 -4.53956,6.7082 -4.44845,7.27226 -7.66794,15.27781 -9.61474,23.57305 -0.17106,0.74456 -0.3686,1.61983 -0.52844,2.42227 -0.93123,4.50885 -1.48113,8.96592 -1.79624,13.55238 -0.1758,2.11521 -0.35132,4.23044 -0.52688,6.34566 -4.35783,-7.10071 -8.79968,-14.20582 -11.96818,-21.93971 -4.58381,-10.83654 -7.29708,-22.67549 -6.37951,-34.48501 0.77047,-9.97823 4.45378,-19.75649 10.73222,-27.57919 7.038,-8.90461 16.82727,-15.25367 27.1944,-19.63873 5.06871,-2.19154 10.57044,-3.23097 16.08318,-3.27142 z m -207.24219,0.22656 c 14.45968,0.0558 28.63147,6.43511 38.64454,16.79687 10.42883,10.68011 16.60894,25.54886 16.23458,40.52409 -0.1097,6.54258 -1.61174,12.99623 -3.92958,19.0952 -2.96034,8.15598 -6.52362,16.07543 -9.80143,24.1053 -1.10793,2.50718 -2.2159,5.01435 -3.32389,7.52151 -0.60335,-4.48766 -1.07458,-8.98956 -1.59494,-13.48673 -1.55343,-11.50324 -5.75643,-22.71433 -11.77029,-32.71835 -0.97674,-1.62022 -2.10776,-3.38097 -3.23557,-4.99766 -4.46188,-6.43173 -9.83558,-12.34971 -15.75271,-17.37539 -6.07428,-5.17394 -12.86015,-9.5044 -20.10938,-12.83789 -0.80886,-0.35067 -1.86566,-0.84643 -2.78775,-1.21541 -9.09223,-3.82282 -18.826,-6.01008 -28.64269,-6.82365 -2.94318,-0.34706 -5.88627,-0.69485 -8.829323,-1.04297 7.708123,-3.4256 15.523053,-6.59885 23.292973,-9.87891 10.04445,-4.15077 20.60418,-7.75675 31.60546,-7.66601 z m 103.47071,11.20898 c 7.94093,0.0137 16.09836,2.14691 22.39493,7.13877 5.25746,4.08209 8.9287,9.88143 11.31602,16.03121 3.27148,7.82414 6.38054,15.7158 9.59569,23.5644 -6.60273,-4.19948 -13.18451,-8.565 -20.51359,-11.41642 -1.1316,-0.45521 -2.22406,-0.86005 -3.30508,-1.22551 -1.66936,-0.57789 -3.46571,-1.09372 -5.0682,-1.4936 -7.52982,-1.91259 -15.4513,-2.28957 -23.11508,-0.97971 -5.663,0.93785 -11.35035,2.77248 -16.63095,5.1878 -3.69929,1.67799 -7.18795,3.59684 -10.60734,5.73603 -2.32363,1.43869 -4.64721,2.87749 -6.9707,4.31641 2.93306,-6.86117 5.71474,-13.78587 8.53268,-20.69395 2.62637,-6.30433 5.75913,-12.62387 10.81521,-17.35302 5.57043,-5.33864 13.16003,-8.33596 20.82737,-8.7316 0.90856,-0.0566 1.81877,-0.0761 2.72904,-0.0808 z m 152.08398,10.11133 c 10.90633,0.0185 21.68011,2.543 31.82424,6.43815 10.6298,3.93345 20.98055,8.56586 31.46287,12.86654 2.39132,1.29159 4.7826,2.58325 7.17383,3.875 -3.77868,0.3874 -7.54285,1.05347 -11.35239,0.99822 -8.67927,0.22158 -17.33386,1.38472 -25.76284,3.46662 -1.44766,0.3722 -3.1151,0.79973 -4.6331,1.25183 -6.05207,1.75868 -11.97896,4.0285 -17.62667,6.7052 -11.4499,5.42737 -22.06087,12.76983 -31.20703,21.46094 -16.37857,15.56834 -28.39648,35.80106 -33.66036,57.81556 -0.94496,3.90112 -1.66693,7.88255 -2.17781,11.92345 -0.24476,1.96495 -0.43227,3.85719 -0.56277,5.77847 -0.24196,3.29294 -0.31127,6.79795 -0.26117,10.18174 -0.53187,0.82473 -1.52873,1.07788 -2.45508,0.94727 -2.10882,0.33866 -4.10292,-1.3951 -4.39882,-3.44374 -0.71575,-2.37918 -1.8614,-4.59853 -2.78515,-6.89947 -5.01017,-11.62706 -10.56076,-23.18112 -13.1583,-35.65258 -3.47817,-16.55398 -1.52065,-34.19432 5.52796,-49.57405 6.66078,-14.66885 17.84588,-27.21003 31.59965,-35.58775 11.12793,-6.89961 23.8214,-11.51493 36.94176,-12.37163 1.83417,-0.12834 3.6725,-0.18587 5.51118,-0.17977 z m -304.25586,0.16602 c 19.97595,-0.15621 39.85846,7.40574 54.78321,20.66406 9.58659,8.45942 17.06683,19.24923 21.74091,31.14248 4.90638,12.1577 6.93895,25.54123 5.29954,38.58073 -1.03395,8.74138 -3.66143,17.26399 -7.14996,25.29929 -3.69766,8.90054 -7.32271,17.83407 -11.08529,26.70522 -1.24289,2.35905 -2.48592,4.71803 -3.72903,7.07697 -0.42391,-3.95112 -1.0614,-7.89113 -1.05511,-11.87422 -0.22583,-5.61092 -0.90969,-11.40283 -1.98685,-16.90474 -1.94155,-10.01677 -5.27573,-19.75159 -9.76859,-28.90854 -4.39373,-8.92652 -10.02147,-17.45964 -16.54191,-25.07409 -2.86239,-3.35931 -6.07714,-6.73249 -9.32367,-9.7778 -5.23163,-4.92631 -10.93232,-9.39492 -16.89994,-13.3038 -2.4942,-1.63296 -5.09545,-3.19351 -7.74815,-4.66072 -1.251854,-0.68572 -2.66436,-1.43984 -3.948545,-2.08216 -8.928148,-4.50053 -18.569795,-7.94404 -28.416068,-10.0193 -7.811007,-1.66292 -16.030771,-2.47698 -24.139282,-2.43017 -1.093106,0.008 -2.186209,0.0154 -3.279309,0.0238 0.460317,-1.94963 0.464731,-4.28883 2.103515,-5.69922 1.332668,-1.13229 3.181143,-1.1462 4.680644,-1.95004 11.179779,-4.64821 22.265727,-9.58324 33.786165,-13.34628 7.336928,-2.2485 15.004656,-3.4121 22.67772,-3.46149 z m 152.91016,22.17578 c 17.95695,-0.16563 35.63039,9.25818 45.64977,24.13438 2.99571,4.29699 4.9942,9.16711 6.93336,14.00314 3.7059,8.97308 7.41326,17.94557 11.11804,26.91912 -7.10987,-5.08816 -14.14263,-10.34792 -21.87374,-14.47698 -5.23321,-2.84548 -10.6905,-5.2877 -16.3372,-7.19099 -3.52688,-1.1826 -7.39325,-2.23684 -11.16533,-2.95868 -3.25801,-0.63145 -6.49005,-1.0401 -9.72725,-1.26398 -8.80552,-0.60989 -17.75704,0.41577 -26.20139,2.74566 -11.83638,3.25573 -22.83337,9.07592 -32.83719,16.11972 -1.62408,1.10574 -3.19141,2.31317 -4.81335,3.40865 -0.54529,0.37749 -1.08039,-0.0251 -1.61681,-0.20762 -0.36721,-0.72021 -0.2953,-1.52557 0.0684,-2.23242 3.63389,-11.37932 7.23192,-22.94297 13.47401,-33.21817 4.57548,-7.52054 10.93767,-14.05051 18.71208,-18.26234 7.46244,-4.09549 15.83169,-6.35356 24.25986,-7.29851 1.44809,-0.14046 2.90231,-0.20131 4.35679,-0.22098 z m 1.09765,41.38867 c 13.6831,0.0492 27.51567,3.13219 39.43482,9.98885 11.32299,6.44823 20.6282,16.10624 27.39955,27.18162 3.80526,6.13553 6.77386,12.74011 9.44061,19.43579 3.1877,7.75505 6.5126,15.46951 9.65541,23.25136 0.74871,2.50266 1.49787,5.00518 2.24735,7.50761 -2.91497,-2.37046 -6.02577,-4.52311 -8.65388,-7.2243 -5.31469,-5.02624 -11.18696,-9.50092 -17.36173,-13.32298 -4.69653,-2.91212 -9.60741,-5.47365 -14.70817,-7.69051 -10.84427,-4.71624 -22.62788,-7.80684 -34.37583,-9.15869 -8.14106,-0.94615 -16.61651,-1.07598 -24.77539,-0.38672 -8.00701,0.67555 -15.98928,2.12939 -23.75499,4.38228 -13.39129,3.87197 -26.29072,10.2403 -37.38564,18.82671 -3.04818,2.35405 -6.12148,5.00353 -8.94042,7.74139 -1.44342,1.40713 -2.85824,2.8435 -4.28809,4.26447 -0.73764,-1.96197 -2.01408,-3.82391 -2.02344,-5.98438 0.0924,-2.21335 1.63807,-3.97544 2.26314,-6.03493 3.97956,-9.77245 7.79562,-19.62741 12.39154,-29.1343 5.90849,-11.80112 14.3761,-22.50019 25.28976,-30.039 10.95992,-7.64817 24.07013,-11.86982 37.3181,-13.10598 3.59672,-0.35978 7.21291,-0.51053 10.8273,-0.49829 z" /></svg>
